<svg width="32" height="32" viewBox="0 0 32 32" fill="none" xmlns="http://www.w3.org/2000/svg">
<path d="M4 13.1387C4 11.7734 5.10681 10.6666 6.47214 10.6666V10.6666C7.40851 10.6666 8.26452 10.1375 8.68328 9.30002L9.77778 7.11103C10.1032 6.46028 10.2658 6.1349 10.5096 5.89822C10.7181 5.6959 10.968 5.5414 11.2422 5.44547C11.5629 5.33325 11.9267 5.33325 12.6543 5.33325H19.3457C20.0733 5.33325 20.4371 5.33325 20.7578 5.44547C21.032 5.5414 21.2819 5.6959 21.4904 5.89822C21.7342 6.1349 21.8968 6.46028 22.2222 7.11103L23.3167 9.30002C23.7355 10.1375 24.5915 10.6666 25.5279 10.6666V10.6666C26.8932 10.6666 28 11.7734 28 13.1387V20.6666C28 23.495 28 24.9092 27.1213 25.7879C26.2426 26.6666 24.8284 26.6666 22 26.6666H10C7.17157 26.6666 5.75736 26.6666 4.87868 25.7879C4 24.9092 4 23.495 4 20.6666V13.1387Z" stroke="#222222" stroke-width="2"/>
<circle cx="16" cy="17.3333" r="4.33333" stroke="#222222" stroke-width="2"/>
</svg>
