<svg width="212" height="213" viewBox="0 0 212 213" fill="none" xmlns="http://www.w3.org/2000/svg">
<path d="M106 212.359C91.3766 212.359 77.6557 209.582 64.8372 204.028C52.0169 198.474 40.8655 190.937 31.383 181.418C21.9022 171.897 14.3958 160.701 8.86407 147.829C3.33229 134.959 0.566406 121.182 0.566406 106.5C0.566406 91.8177 3.33229 78.0415 8.86407 65.1713C14.3958 52.2993 21.9022 41.103 31.383 31.5822C40.8655 22.0631 52.0169 14.5266 64.8372 8.97248C77.6557 3.4184 91.3766 0.641357 106 0.641357C117.194 0.641357 127.786 2.24257 137.775 5.44499C147.764 8.6474 157.019 13.1467 165.541 18.9429L148.395 36.417C142.097 32.5989 135.424 29.6153 128.377 27.4659C121.328 25.3183 113.869 24.2445 106 24.2445C83.2994 24.2445 63.97 32.2453 48.0119 48.247C32.0538 64.2505 24.0747 83.6682 24.0747 106.5C24.0747 129.332 32.0538 148.75 48.0119 164.753C63.97 180.755 83.2994 188.756 106 188.756C128.699 188.756 148.028 180.755 163.988 164.753C179.946 148.75 187.925 129.332 187.925 106.5C187.925 103.65 187.774 100.8 187.471 97.9485C187.167 95.0988 186.713 92.3278 186.107 89.6355L205.306 70.3562C207.283 76.014 208.799 81.8543 209.853 87.877C210.907 93.8979 211.434 100.097 211.434 106.474C211.434 121.174 208.668 134.959 203.136 147.829C197.604 160.701 190.098 171.897 180.617 181.418C171.134 190.937 159.983 198.474 147.163 204.028C134.344 209.582 120.623 212.359 106 212.359ZM91.3473 155.465L46.5058 110.443L62.6387 94.1798L91.3473 123.004L195.236 18.4371L211.434 34.6973L91.3473 155.465Z" fill="#045BA2"/>
</svg>
