<svg width="248" height="249" viewBox="0 0 248 249" fill="none" xmlns="http://www.w3.org/2000/svg">
<path d="M124 230.359C109.377 230.359 95.6557 227.582 82.8372 222.028C70.0169 216.474 58.8655 208.937 49.383 199.418C39.9022 189.897 32.3958 178.701 26.8641 165.829C21.3323 152.959 18.5664 139.182 18.5664 124.5C18.5664 109.818 21.3323 96.0415 26.8641 83.1713C32.3958 70.2993 39.9022 59.103 49.383 49.5822C58.8655 40.0631 70.0169 32.5266 82.8372 26.9725C95.6557 21.4184 109.377 18.6414 124 18.6414C135.194 18.6414 145.786 20.2426 155.775 23.445C165.764 26.6474 175.019 31.1467 183.541 36.9429L166.395 54.417C160.097 50.5989 153.424 47.6153 146.377 45.4659C139.328 43.3183 131.869 42.2445 124 42.2445C101.299 42.2445 81.97 50.2453 66.0119 66.247C50.0538 82.2505 42.0747 101.668 42.0747 124.5C42.0747 147.332 50.0538 166.75 66.0119 182.753C81.97 198.755 101.299 206.756 124 206.756C146.699 206.756 166.028 198.755 181.988 182.753C197.946 166.75 205.925 147.332 205.925 124.5C205.925 121.65 205.774 118.8 205.471 115.948C205.167 113.099 204.713 110.328 204.107 107.636L223.306 88.3562C225.283 94.014 226.799 99.8543 227.853 105.877C228.907 111.898 229.434 118.097 229.434 124.474C229.434 139.174 226.668 152.959 221.136 165.829C215.604 178.701 208.098 189.897 198.617 199.418C189.134 208.937 177.983 216.474 165.163 222.028C152.344 227.582 138.623 230.359 124 230.359ZM109.347 173.465L64.5058 128.443L80.6387 112.18L109.347 141.004L213.236 36.4371L229.434 52.6973L109.347 173.465Z" fill="#045BA2"/>
</svg>
