<svg width="32" height="32" viewBox="0 0 32 32" fill="none" xmlns="http://www.w3.org/2000/svg">
<path d="M16 32C20.4444 32 24.2222 30.4444 27.3333 27.3333C30.4444 24.2222 32 20.4444 32 16C32 11.5556 30.4444 7.77778 27.3333 4.66667C24.2222 1.55556 20.4444 0 16 0C15.5852 0 15.1778 0.0148148 14.7778 0.0444444C14.3778 0.0740741 13.9852 0.118519 13.6 0.177778C14.8148 1.03704 15.7852 2.15556 16.5111 3.53333C17.237 4.91111 17.6 6.4 17.6 8C17.6 10.6667 16.6667 12.9333 14.8 14.8C12.9333 16.6667 10.6667 17.6 8 17.6C6.37037 17.6 4.87407 17.237 3.51111 16.5111C2.14815 15.7852 1.03704 14.8148 0.177776 13.6C0.118517 13.9852 0.0740738 14.3778 0.0444431 14.7778C0.0148144 15.1778 0 15.5852 0 16C0 20.4444 1.55556 24.2222 4.66667 27.3333C7.77778 30.4444 11.5556 32 16 32ZM16 28.4444C13.3926 28.4444 11.0519 27.7259 8.97778 26.2889C6.9037 24.8519 5.39259 22.9778 4.44444 20.6667C5.03704 20.8148 5.62963 20.9333 6.22222 21.0222C6.81481 21.1111 7.40741 21.1556 8 21.1556C11.6444 21.1556 14.7481 19.8741 17.3111 17.3111C19.8741 14.7481 21.1556 11.6444 21.1556 8C21.1556 7.40741 21.1111 6.81482 21.0222 6.22222C20.9333 5.62963 20.8148 5.03704 20.6667 4.44444C22.9778 5.39259 24.8519 6.9037 26.2889 8.97778C27.7259 11.0519 28.4444 13.3926 28.4444 16C28.4444 19.437 27.2296 22.3704 24.8 24.8C22.3704 27.2296 19.437 28.4444 16 28.4444Z" fill="#045BA2"/>
</svg>
