<svg width="24" height="24" viewBox="0 0 24 24" fill="none" xmlns="http://www.w3.org/2000/svg">
<path d="M5.06575 18.9284H6.49675L15.8653 9.55988L14.4463 8.13488L5.06575 17.5154V18.9284ZM2.79675 21.2034V16.5709L15.9848 3.40188C16.1928 3.20654 16.4236 3.05687 16.6773 2.95287C16.9308 2.84887 17.1968 2.79688 17.4755 2.79688C17.7502 2.79688 18.0185 2.84887 18.2805 2.95287C18.5423 3.05687 18.7729 3.21288 18.9723 3.42088L20.6043 5.05988C20.8123 5.25521 20.9651 5.48488 21.0628 5.74888C21.1604 6.01271 21.2093 6.27762 21.2093 6.54362C21.2093 6.82229 21.1604 7.08937 21.0628 7.34487C20.9651 7.60054 20.8123 7.83238 20.6043 8.04037L7.44125 21.2034H2.79675ZM15.1463 8.85388L14.4463 8.13488L15.8653 9.55988L15.1463 8.85388Z" fill="black"/>
</svg>
