<svg width="48" height="48" viewBox="0 0 48 48" fill="none" xmlns="http://www.w3.org/2000/svg">
<path d="M23.5 27.6H17.1299C15.7214 27.6 15.0172 27.6 14.7223 27.1385C14.4274 26.6769 14.7232 26.0379 15.3149 24.7597L23.0463 8.06006C23.4205 7.25182 23.6075 6.8477 23.8038 6.89091C24 6.93413 24 7.37946 24 8.27013V19.9C24 20.1357 24 20.2536 24.0732 20.3268C24.1464 20.4 24.2643 20.4 24.5 20.4H30.8701C32.2786 20.4 32.9828 20.4 33.2777 20.8615C33.5726 21.3231 33.2768 21.9621 32.6851 23.2402L24.9537 39.9399C24.5795 40.7482 24.3925 41.1523 24.1962 41.1091C24 41.0659 24 40.6205 24 39.7299V28.1C24 27.8643 24 27.7464 23.9268 27.6732C23.8536 27.6 23.7357 27.6 23.5 27.6Z" fill="white"/>
</svg>
