<svg width="48" height="48" viewBox="0 0 48 48" fill="none" xmlns="http://www.w3.org/2000/svg">
<path fill-rule="evenodd" clip-rule="evenodd" d="M5.17157 5.17152C4 6.34309 4 8.22871 4 11.9999V35.9999C4 39.7712 4 41.6568 5.17157 42.8284C6.34315 43.9999 8.22876 43.9999 12 43.9999H36C39.7712 43.9999 41.6569 43.9999 42.8284 42.8284C44 41.6568 44 39.7712 44 35.9999V11.9999C44 8.4226 44 6.54196 43 5.35804V33.9999C41.6765 33.9999 41.0147 33.9999 40.4049 33.799C40.2165 33.7369 40.033 33.6609 39.8558 33.5715C39.2825 33.2824 38.8145 32.8145 37.8787 31.8786L34.8284 28.8284C33.4951 27.495 32.8284 26.8284 32 26.8284C31.1716 26.8284 30.5049 27.495 29.1716 28.8284L26.0888 31.9111C25.1424 32.8575 24.6692 33.3307 24.1482 33.2304C23.6272 33.13 23.3636 32.5149 22.8363 31.2847L20.3273 25.4304C19.2729 22.97 18.7456 21.7398 17.7036 21.5391C16.6615 21.3384 15.7151 22.2848 13.8223 24.1776L7 30.9999V4.25195C6.2255 4.42054 5.64118 4.70191 5.17157 5.17152Z" fill="white"/>
<path d="M5 12C5 10.0861 5.00212 8.75129 5.13753 7.74416C5.26907 6.76579 5.50966 6.2477 5.87868 5.87868C6.2477 5.50966 6.76579 5.26907 7.74416 5.13753C8.75129 5.00212 10.0861 5 12 5H36C37.9139 5 39.2487 5.00212 40.2558 5.13753C41.2342 5.26907 41.7523 5.50966 42.1213 5.87868C42.4903 6.2477 42.7309 6.76579 42.8625 7.74416C42.9979 8.75129 43 10.0861 43 12V36C43 37.9139 42.9979 39.2487 42.8625 40.2558C42.7309 41.2342 42.4903 41.7523 42.1213 42.1213C41.7523 42.4903 41.2342 42.7309 40.2558 42.8625C39.2487 42.9979 37.9139 43 36 43H12C10.0861 43 8.75129 42.9979 7.74416 42.8625C6.76579 42.7309 6.2477 42.4903 5.87868 42.1213C5.50966 41.7523 5.26907 41.2342 5.13753 40.2558C5.00212 39.2487 5 37.9139 5 36V12Z" stroke="white" stroke-width="2"/>
<circle cx="30" cy="18" r="4" fill="white"/>
</svg>
