<svg width="26" height="29" viewBox="0 0 26 29" fill="none" xmlns="http://www.w3.org/2000/svg">
<path d="M24.6666 14.2659C24.6666 12.003 24.6666 10.8715 24.2092 9.87695C23.7518 8.88239 22.8927 8.14604 21.1745 6.67335L19.5079 5.24478C16.4023 2.58289 14.8496 1.25195 13 1.25195C11.1503 1.25195 9.59758 2.58289 6.49205 5.24478L4.82538 6.67335C3.10724 8.14604 2.24816 8.88239 1.79073 9.87695C1.33329 10.8715 1.33329 12.003 1.33329 14.2659V21.3332C1.33329 24.4759 1.33329 26.0473 2.3096 27.0236C3.28592 27.9999 4.85726 27.9999 7.99996 27.9999H18C21.1427 27.9999 22.714 27.9999 23.6903 27.0236C24.6666 26.0473 24.6666 24.4759 24.6666 21.3332V14.2659Z" stroke="#045BA2" stroke-width="2"/>
</svg>
