<svg width="24" height="27" viewBox="0 0 24 27" fill="none" xmlns="http://www.w3.org/2000/svg">
<path fill-rule="evenodd" clip-rule="evenodd" d="M0.457436 8.625C0 9.61957 0 10.751 0 13.014V20.0813C0 23.224 0 24.7953 0.976311 25.7716C1.93521 26.7305 3.46811 26.7476 6.5 26.7479V18.4147C6.5 16.942 7.69391 15.748 9.16667 15.748H14.1667C15.6394 15.748 16.8333 16.942 16.8333 18.4147V26.7479C19.8652 26.7476 21.3981 26.7305 22.357 25.7716C23.3333 24.7953 23.3333 23.224 23.3333 20.0813V13.014C23.3333 10.751 23.3333 9.61957 22.8759 8.625C22.4185 7.63044 21.5594 6.89409 19.8412 5.42139L18.1746 3.99282C15.0691 1.33094 13.5163 0 11.6667 0C9.81705 0 8.26428 1.33094 5.15875 3.99282L3.49209 5.42139C1.77394 6.89409 0.914871 7.63044 0.457436 8.625ZM14.8333 26.7479V18.4147C14.8333 18.0465 14.5349 17.748 14.1667 17.748H9.16667C8.79848 17.748 8.5 18.0465 8.5 18.4147V26.7479H14.8333Z" fill="white"/>
</svg>
