<svg width="32" height="32" viewBox="0 0 32 32" fill="none" xmlns="http://www.w3.org/2000/svg">
<path d="M22.6875 11L15.375 29H18.3275L19.8581 25.375H25.5169L27.0475 29H30L22.6875 11ZM21.0194 22.625L22.6875 17.4906L24.3556 22.625H21.0194Z" fill="#045BA2"/>
<path d="M17 20C16.9844 19.9881 15.7131 19.0144 14.1613 17.3331C16.635 13.9806 18.0363 10.17 18.6081 8.375H22V5.625H13.375V3H10.625V5.625H2V8.375H15.7031C15.1081 10.0594 14.0125 12.7188 12.3413 15.1475C10.2987 12.4325 9.395 10.405 9.38313 10.3837L8.9375 9.5L6.5625 10.875L6.99188 11.7413C7.0475 11.8387 8.06625 14.11 10.4113 17.1519C10.4688 17.2275 10.5269 17.3013 10.585 17.375C7.4775 20.9287 5.01312 22.3181 4.98125 22.3419L4 23L5.4375 25.25L6.64375 24.5331C6.78125 24.4287 9.22688 23.0331 12.3938 19.4844C13.9263 21.1269 15.095 22.0363 15.1625 22.0888L15.9375 22.625L17 20Z" fill="#045BA2"/>
</svg>
