<svg width="24" height="24" viewBox="0 0 24 24" fill="none" xmlns="http://www.w3.org/2000/svg">
<path d="M12 12.0599C12.57 12.0599 13.0557 11.859 13.4572 11.4574C13.8589 11.0559 14.0597 10.5701 14.0597 10.0001C14.0597 9.43012 13.8589 8.94438 13.4572 8.54288C13.0557 8.14121 12.57 7.94037 12 7.94037C11.43 7.94037 10.9442 8.14121 10.5427 8.54288C10.1411 8.94438 9.94025 9.43012 9.94025 10.0001C9.94025 10.5701 10.1411 11.0559 10.5427 11.4574C10.9442 11.859 11.43 12.0599 12 12.0599ZM12 19.1886C14.0055 17.354 15.4949 15.699 16.4682 14.2239C17.4416 12.7485 17.9282 11.3993 17.9282 10.1761C17.9282 8.38762 17.356 6.92312 16.2115 5.78262C15.067 4.64213 13.6631 4.07188 11.9997 4.07188C10.3366 4.07188 8.93275 4.64213 7.78825 5.78262C6.64392 6.92312 6.07175 8.38762 6.07175 10.1761C6.07175 11.3993 6.55842 12.7475 7.53175 14.2209C8.50508 15.694 9.9945 17.35 12 19.1886ZM12 22.2034C9.25283 19.8802 7.19883 17.7345 5.838 15.7661C4.47717 13.7978 3.79675 11.9345 3.79675 10.1761C3.79675 7.62146 4.62133 5.58629 6.2705 4.07063C7.91967 2.55479 9.8295 1.79688 12 1.79688C14.1705 1.79688 16.0803 2.55479 17.7295 4.07063C19.3787 5.58629 20.2032 7.62146 20.2032 10.1761C20.2032 11.9345 19.5228 13.7978 18.162 15.7661C16.8012 17.7345 14.7472 19.8802 12 22.2034Z" fill="#3A4CBA"/>
</svg>
