<svg width="40" height="40" viewBox="0 0 40 40" fill="none" xmlns="http://www.w3.org/2000/svg">
<path d="M35.75 18.7118H33.4334C33.1306 15.561 31.7409 12.6138 29.5028 10.3757C27.2646 8.13752 24.3174 6.74787 21.1667 6.44509V4.12842C21.1667 3.7969 21.035 3.47896 20.8006 3.24453C20.5662 3.01011 20.2482 2.87842 19.9167 2.87842C19.5852 2.87842 19.2672 3.01011 19.0328 3.24453C18.7984 3.47896 18.6667 3.7969 18.6667 4.12842V6.44509C15.5298 6.76301 12.6004 8.1597 10.3785 10.3968C8.15657 12.6339 6.77988 15.5727 6.48335 18.7118H4.16669C4.00253 18.7118 3.83999 18.7441 3.68833 18.8069C3.53668 18.8697 3.39888 18.9618 3.2828 19.0779C3.16673 19.1939 3.07466 19.3317 3.01184 19.4834C2.94902 19.6351 2.91669 19.7976 2.91669 19.9618C2.91669 20.1259 2.94902 20.2884 3.01184 20.4401C3.07466 20.5918 3.16673 20.7296 3.2828 20.8456C3.39888 20.9617 3.53668 21.0538 3.68833 21.1166C3.83999 21.1794 4.00253 21.2118 4.16669 21.2118H6.48335C6.78614 24.3625 8.17578 27.3097 10.4139 29.5478C12.6521 31.786 15.5993 33.1756 18.75 33.4784V35.7951C18.75 36.1266 18.8817 36.4445 19.1161 36.679C19.3506 36.9134 19.6685 37.0451 20 37.0451C20.3315 37.0451 20.6495 36.9134 20.8839 36.679C21.1183 36.4445 21.25 36.1266 21.25 35.7951V33.4784C24.3996 33.1725 27.3451 31.7819 29.5826 29.5443C31.8202 27.3068 33.2108 24.3613 33.5167 21.2118H35.8334C35.9975 21.2118 36.1601 21.1794 36.3117 21.1166C36.4634 21.0538 36.6012 20.9617 36.7172 20.8456C36.8333 20.7296 36.9254 20.5918 36.9882 20.4401C37.051 20.2884 37.0834 20.1259 37.0834 19.9618C37.0834 19.7976 37.051 19.6351 36.9882 19.4834C36.9254 19.3317 36.8333 19.1939 36.7172 19.0779C36.6012 18.9618 36.4634 18.8697 36.3117 18.8069C36.1601 18.7441 35.9975 18.7118 35.8334 18.7118H35.75ZM19.9167 31.0284C17.7279 31.0284 15.5883 30.3794 13.7684 29.1634C11.9485 27.9473 10.53 26.219 9.69242 24.1968C8.85481 22.1746 8.63565 19.9495 9.06266 17.8028C9.48967 15.656 10.5437 13.6841 12.0914 12.1364C13.6391 10.5887 15.611 9.53474 17.7577 9.10773C19.9044 8.68072 22.1295 8.89988 24.1517 9.73749C26.1739 10.5751 27.9023 11.9935 29.1183 13.8134C30.3343 15.6333 30.9834 17.773 30.9834 19.9618C30.9834 22.8983 29.8179 25.7149 27.743 27.793C25.6681 29.871 22.8533 31.0407 19.9167 31.0451V31.0284Z" fill="#045BA2"/>
<path d="M27.4667 19.9783C27.4667 21.4756 27.0225 22.9392 26.1903 24.1838C25.3581 25.4285 24.1754 26.3984 22.7918 26.9706C21.4082 27.5428 19.8859 27.6917 18.4177 27.3983C16.9494 27.105 15.6012 26.3827 14.5437 25.3228C13.4861 24.2629 12.7668 22.9131 12.4767 21.4442C12.1866 19.9754 12.3389 18.4534 12.9141 17.0711C13.4894 15.6888 14.4618 14.5082 15.7083 13.6787C16.9549 12.8493 18.4194 12.4083 19.9167 12.4116C20.9096 12.4116 21.8927 12.6075 22.8098 12.9879C23.7269 13.3684 24.5599 13.926 25.2612 14.6289C25.9625 15.3317 26.5183 16.166 26.8968 17.0839C27.2752 18.0019 27.4689 18.9854 27.4667 19.9783Z" fill="#045BA2"/>
</svg>
