<svg width="27" height="30" viewBox="0 0 27 30" fill="none" xmlns="http://www.w3.org/2000/svg">
<path d="M13.5 15.0878C14.438 15.0878 15.2374 14.7926 15.8982 14.2021C16.5592 13.6118 16.8897 12.8977 16.8897 12.0598C16.8897 11.2218 16.5592 10.5077 15.8982 9.91743C15.2374 9.32693 14.438 9.03168 13.5 9.03168C12.562 9.03168 11.7626 9.32693 11.1018 9.91743C10.4408 10.5077 10.1103 11.2218 10.1103 12.0598C10.1103 12.8977 10.4408 13.6118 11.1018 14.2021C11.7626 14.7926 12.562 15.0878 13.5 15.0878ZM13.5 25.568C16.8004 22.8708 19.2515 20.4379 20.8533 18.2692C22.4552 16.1003 23.2561 14.1167 23.2561 12.3185C23.2561 9.68919 22.3143 7.5362 20.4308 5.85953C18.5473 4.18286 16.2369 3.34452 13.4996 3.34452C10.7625 3.34452 8.45226 4.18286 6.56877 5.85953C4.68555 7.5362 3.74394 9.68919 3.74394 12.3185C3.74394 14.1167 4.54484 16.0988 6.14665 18.2648C7.74845 20.4305 10.1996 22.8649 13.5 25.568ZM13.5 30C8.97902 26.5847 5.59877 23.4302 3.35926 20.5365C1.11975 17.6428 0 14.9035 0 12.3185C0 8.56283 1.35701 5.5709 4.07102 3.34269C6.78504 1.11423 9.92803 0 13.5 0C17.072 0 20.215 1.11423 22.929 3.34269C25.643 5.5709 27 8.56283 27 12.3185C27 14.9035 25.8802 17.6428 23.6407 20.5365C21.4012 23.4302 18.021 26.5847 13.5 30Z" fill="#045BA2"/>
</svg>
