<svg width="69" height="46" viewBox="0 0 69 46" fill="none" xmlns="http://www.w3.org/2000/svg">
<path d="M35.866 32.663C41.3868 38.0305 50.2954 37.9052 55.663 32.3844C61.0306 26.8636 60.9052 17.955 55.3845 12.5874C50.0788 7.42893 41.7318 7.2635 36.2148 12.2206L38.8677 14.7999C43.1996 11.0616 49.7123 11.5357 53.4505 15.8676C57.1888 20.1995 56.7147 26.7122 52.3828 30.4505C48.3297 33.902 42.3169 33.7744 38.4452 30.0101L39.8394 28.5761C43.1375 31.7828 48.3696 31.7091 51.5762 28.411C54.7828 25.1129 54.7092 19.8808 51.4111 16.6742C48.3997 13.7464 43.6576 13.4596 40.3713 16.1224L43.5261 19.1895C45.0676 18.1778 47.121 18.3611 48.4833 19.6855C50.0606 21.2191 50.0965 23.7645 48.5629 25.3418C47.0293 26.9192 44.4839 26.955 42.9066 25.4214C41.616 24.1667 41.375 22.1192 42.2733 20.6215L33.5978 12.1867C33.7352 11.9019 33.9443 11.6868 34.1535 11.4718C40.2878 5.16229 50.4692 5.01904 56.7786 11.1534C63.0881 17.2878 63.2314 27.4691 57.097 33.7786C50.9626 40.0881 40.7813 40.2313 34.4718 34.0969L35.866 32.663ZM44.231 24.0591C45.0197 24.8259 46.2924 24.808 47.0592 24.0194C47.826 23.2307 47.8081 21.958 47.0194 21.1912C46.2307 20.4244 44.958 20.4423 44.1912 21.231C43.4245 22.0197 43.4424 23.2923 44.231 24.0591Z" fill="url(#paint0_linear_811_471)"/>
<path d="M5.744 29.84C4.12267 29.84 2.85867 29.472 1.952 28.736C1.056 28.0107 0.608 26.992 0.608 25.68C0.608 25.2 0.672 24.672 0.8 24.096C0.938667 23.52 1.12533 22.9547 1.36 22.4L2.576 22.768C2.37333 23.2053 2.208 23.6533 2.08 24.112C1.952 24.5707 1.888 24.9867 1.888 25.36C1.888 26.1707 2.18133 26.7947 2.768 27.232C3.35467 27.68 4.16533 27.904 5.2 27.904H6.304C7.53067 27.904 8.48533 27.6853 9.168 27.248C9.86133 26.8213 10.208 26.224 10.208 25.456L7.696 24.944C6.74667 24.752 6.03733 24.4427 5.568 24.016C5.10933 23.5893 4.88 23.0133 4.88 22.288C4.88 21.7653 4.976 21.248 5.168 20.736C5.37067 20.2133 5.64267 19.7493 5.984 19.344C6.336 18.928 6.74133 18.592 7.2 18.336C7.65867 18.08 8.144 17.952 8.656 17.952C9.264 17.952 9.792 18.1013 10.24 18.4C10.688 18.688 11.056 19.0933 11.344 19.616L10.064 20.8C9.86133 20.48 9.62133 20.2293 9.344 20.048C9.07733 19.856 8.752 19.76 8.368 19.76C8.08 19.76 7.80267 19.8187 7.536 19.936C7.26933 20.0533 7.03467 20.2133 6.832 20.416C6.62933 20.608 6.46933 20.8373 6.352 21.104C6.23467 21.36 6.176 21.632 6.176 21.92C6.176 22.2293 6.31467 22.4853 6.592 22.688C6.86933 22.88 7.30133 23.0347 7.888 23.152L9.984 23.584C10.528 23.7013 10.9173 23.9093 11.152 24.208C11.3867 24.496 11.504 24.912 11.504 25.456C11.504 26.1493 11.3707 26.768 11.104 27.312C10.848 27.856 10.4693 28.3147 9.968 28.688C9.47733 29.0613 8.87467 29.344 8.16 29.536C7.456 29.7387 6.65067 29.84 5.744 29.84ZM11.3056 28.032H11.9136C12.4576 28.032 12.911 27.9627 13.2736 27.824C13.6363 27.6853 13.9296 27.488 14.1536 27.232C14.3776 26.9867 14.5376 26.688 14.6336 26.336C14.7296 25.984 14.7776 25.5893 14.7776 25.152C14.7776 24.864 14.7616 24.5653 14.7296 24.256C14.6976 23.9467 14.655 23.6373 14.6016 23.328L14.2656 21.392L15.6416 21.136L15.8656 22.48C16.047 23.5147 16.1376 24.4 16.1376 25.136C16.1376 25.7973 16.0576 26.4107 15.8976 26.976C15.7483 27.552 15.503 28.0533 15.1616 28.48C14.8203 28.9067 14.383 29.2373 13.8496 29.472C13.3163 29.7173 12.6763 29.84 11.9296 29.84H11.3056V28.032ZM17.854 14.16H19.342V26H17.854V14.16ZM22.6771 26C22.1331 26 21.7065 25.856 21.3971 25.568C21.0878 25.28 20.9331 24.832 20.9331 24.224V23.056H22.3571V24.192H24.9171C25.4185 24.192 25.7598 24.0907 25.9411 23.888C26.1331 23.6853 26.2291 23.4293 26.2291 23.12C26.2291 22.8 26.1065 22.4587 25.8611 22.096C25.6158 21.7333 25.1945 21.264 24.5971 20.688L22.9651 19.008L24.2611 17.696L25.7331 19.296C26.0851 19.6693 26.3785 20.0213 26.6131 20.352C26.8585 20.672 27.0558 20.9867 27.2051 21.296C27.3545 21.5947 27.4611 21.8987 27.5251 22.208C27.5998 22.5067 27.6371 22.832 27.6371 23.184C27.6371 24.0693 27.3865 24.7627 26.8851 25.264C26.3838 25.7547 25.6745 26 24.7571 26H22.6771ZM29.3384 14.16H30.8264V26H29.3384V14.16ZM30.9775 28.032H31.5855C32.1295 28.032 32.5828 27.9627 32.9455 27.824C33.3082 27.6853 33.6015 27.488 33.8255 27.232C34.0495 26.9867 34.2095 26.688 34.3055 26.336C34.4015 25.984 34.4495 25.5893 34.4495 25.152C34.4495 24.864 34.4335 24.5653 34.4015 24.256C34.3695 23.9467 34.3268 23.6373 34.2735 23.328L33.9375 21.392L35.3135 21.136L35.5375 22.48C35.7188 23.5147 35.8095 24.4 35.8095 25.136C35.8095 25.7973 35.7295 26.4107 35.5695 26.976C35.4202 27.552 35.1748 28.0533 34.8335 28.48C34.4922 28.9067 34.0548 29.2373 33.5215 29.472C32.9882 29.7173 32.3482 29.84 31.6015 29.84H30.9775V28.032Z" fill="#1230AE"/>
<defs>
<linearGradient id="paint0_linear_811_471" x1="46.2532" y1="8.45513" x2="45.2302" y2="40.913" gradientUnits="userSpaceOnUse">
<stop stop-color="#1230AE"/>
<stop offset="1" stop-color="#C65BCF"/>
</linearGradient>
</defs>
</svg>
