<svg width="32" height="32" viewBox="0 0 32 32" fill="none" xmlns="http://www.w3.org/2000/svg">
<path d="M31.7896 29.1838C29.7583 25.4884 26.5865 22.6089 22.7847 21.0091C24.6753 19.5392 26.0718 17.4901 26.7765 15.1518C27.4811 12.8136 27.4582 10.3048 26.7108 7.98078C25.9635 5.65681 24.5297 3.63548 22.6126 2.20312C20.6954 0.770768 18.3921 0 16.0289 0C13.6656 0 11.3623 0.770768 9.44516 2.20312C7.52801 3.63548 6.09423 5.65681 5.34691 7.98078C4.59959 10.3048 4.57662 12.8136 5.28126 15.1518C5.9859 17.4901 7.38242 19.5392 9.27301 21.0091C5.47123 22.6089 2.29941 25.4884 0.268145 29.1838C0.14228 29.3936 0.0583919 29.6275 0.0214672 29.8716C-0.0154575 30.1156 -0.00466495 30.3649 0.0532035 30.6046C0.111072 30.8442 0.214835 31.0694 0.358324 31.2666C0.501812 31.4639 0.682097 31.6292 0.888461 31.7528C1.09483 31.8764 1.32305 31.9557 1.55958 31.9861C1.79611 32.0164 2.0361 31.9971 2.2653 31.9294C2.4945 31.8616 2.70822 31.7468 2.89376 31.5918C3.07929 31.4367 3.23286 31.2446 3.34532 31.0267C6.02989 26.2168 10.7709 23.348 16.0289 23.348C21.2869 23.348 26.0279 26.2183 28.7124 31.0267C28.9562 31.433 29.3427 31.7251 29.7905 31.8412C30.2382 31.9574 30.7119 31.8885 31.1115 31.6492C31.5112 31.4099 31.8053 31.0188 31.9319 30.5588C32.0584 30.0987 32.0074 29.6056 31.7896 29.1838ZM8.32481 11.6763C8.32481 10.0968 8.77665 8.55285 9.62318 7.23958C10.4697 5.9263 11.6729 4.90273 13.0807 4.2983C14.4884 3.69386 16.0374 3.53572 17.5319 3.84385C19.0263 4.15199 20.399 4.91257 21.4765 6.02942C22.5539 7.14627 23.2876 8.56922 23.5849 10.1183C23.8822 11.6674 23.7296 13.2731 23.1465 14.7324C22.5634 16.1916 21.5759 17.4388 20.309 18.3163C19.0421 19.1938 17.5526 19.6622 16.0289 19.6622C13.9864 19.6598 12.0282 18.8176 10.5839 17.3205C9.1396 15.8234 8.32717 13.7935 8.32481 11.6763Z" fill="#3A4CBA"/>
</svg>
