<svg width="34" height="34" viewBox="0 0 34 34" fill="none" xmlns="http://www.w3.org/2000/svg">
<path fill-rule="evenodd" clip-rule="evenodd" d="M12.1651 1.61312C12.4139 1.45655 12.7189 1.41735 12.9992 1.50593L31.5999 7.38546C32.0008 7.5122 32.2797 7.87623 32.2976 8.29636L32.6526 16.6221C32.6679 16.9807 32.4899 17.3199 32.1862 17.511L20.8142 24.6687C20.5654 24.8253 20.2604 24.8645 19.9801 24.7759L1.37937 18.8964C0.978421 18.7696 0.699591 18.4056 0.681675 17.9855L0.326636 9.65971C0.311347 9.30118 0.489342 8.96194 0.793048 8.77079L12.1651 1.61312ZM12.8382 3.55261L3.68465 9.31397L19.786 14.4035L28.9396 8.6421L12.8382 3.55261ZM30.3728 10.1032L20.4591 16.3429C20.2104 16.4995 19.9053 16.5387 19.6251 16.4501L2.38565 11.0009L2.65002 17.2005L20.141 22.7292L30.6297 16.1275L30.3728 10.1032Z" fill="#3A4CBA"/>
<path fill-rule="evenodd" clip-rule="evenodd" d="M3.00502 25.5261L2.67982 17.9001L0.681641 17.9854L1.03668 26.3111C1.0546 26.7312 1.33343 27.0953 1.73438 27.222L20.3351 33.1015C20.6154 33.1901 20.9204 33.1509 21.1692 32.9944L32.5412 25.8367C32.8449 25.6455 33.0229 25.3063 33.0076 24.9478L32.6526 16.622L30.6544 16.7072L30.9847 24.4532L20.496 31.0549L3.00502 25.5261Z" fill="#3A4CBA"/>
</svg>
