<svg width="20" height="25" viewBox="0 0 20 25" fill="none" xmlns="http://www.w3.org/2000/svg">
<path d="M19.7746 15.7696L17.6923 13.436V10.3447C17.6899 8.20836 16.9808 6.14891 15.702 4.56457C14.4233 2.98023 12.6657 1.98353 10.7692 1.76721V0H9.23077V1.76721C7.33429 1.98353 5.57674 2.98023 4.29798 4.56457C3.01921 6.14891 2.31008 8.20836 2.30769 10.3447V13.436L0.225385 15.7696C0.0811159 15.9312 4.35672e-05 16.1505 0 16.3791V18.9652C0 19.1939 0.0810437 19.4131 0.225302 19.5748C0.369561 19.7365 0.565218 19.8273 0.769231 19.8273H6.15385V20.4971C6.13677 21.5908 6.48062 22.6531 7.11943 23.4802C7.75825 24.3074 8.64706 24.841 9.61539 24.9789C10.1501 25.0384 10.6901 24.9717 11.2005 24.7832C11.7108 24.5948 12.1804 24.2887 12.5789 23.8847C12.9774 23.4806 13.296 22.9876 13.5142 22.4373C13.7325 21.887 13.8456 21.2916 13.8462 20.6893V19.8273H19.2308C19.4348 19.8273 19.6304 19.7365 19.7747 19.5748C19.919 19.4131 20 19.1939 20 18.9652V16.3791C20 16.1505 19.9189 15.9312 19.7746 15.7696ZM12.3077 20.6893C12.3077 21.3752 12.0646 22.033 11.6318 22.518C11.199 23.003 10.612 23.2755 10 23.2755C9.38796 23.2755 8.80099 23.003 8.36821 22.518C7.93544 22.033 7.69231 21.3752 7.69231 20.6893V19.8273H12.3077V20.6893ZM18.4615 18.1032H1.53846V16.736L3.62077 14.4024C3.76504 14.2407 3.84611 14.0215 3.84615 13.7929V10.3447C3.84615 8.51562 4.4945 6.76148 5.64857 5.46815C6.80264 4.17481 8.3679 3.44822 10 3.44822C11.6321 3.44822 13.1974 4.17481 14.3514 5.46815C15.5055 6.76148 16.1538 8.51562 16.1538 10.3447V13.7929C16.1539 14.0215 16.235 14.2407 16.3792 14.4024L18.4615 16.736V18.1032Z" fill="#3266CE"/>
</svg>
