<svg width="25" height="32" viewBox="0 0 25 32" fill="none" xmlns="http://www.w3.org/2000/svg">
<path d="M24.7183 20.1851L22.1154 17.1981V13.2412C22.1124 10.5067 21.226 7.87061 19.6275 5.84265C18.0291 3.81469 15.8321 2.53892 13.4615 2.26203V0H11.5385V2.26203C9.16786 2.53892 6.97092 3.81469 5.37247 5.84265C3.77402 7.87061 2.8876 10.5067 2.88462 13.2412V17.1981L0.281731 20.1851C0.101395 20.392 5.4459e-05 20.6726 0 20.9652V24.2755C0 24.5681 0.101305 24.8488 0.281628 25.0557C0.461951 25.2627 0.706523 25.3789 0.961538 25.3789H7.69231V26.2363C7.67097 27.6363 8.10077 28.996 8.89929 30.0547C9.69781 31.1134 10.8088 31.7965 12.0192 31.973C12.6877 32.0491 13.3626 31.9638 14.0006 31.7226C14.6385 31.4813 15.2255 31.0895 15.7236 30.5724C16.2217 30.0552 16.62 29.4241 16.8928 28.7197C17.1656 28.0153 17.3069 27.2532 17.3077 26.4824V25.3789H24.0385C24.2935 25.3789 24.538 25.2627 24.7184 25.0557C24.8987 24.8488 25 24.5681 25 24.2755V20.9652C24.9999 20.6726 24.8986 20.392 24.7183 20.1851ZM15.3846 26.4824C15.3846 27.3603 15.0807 28.2023 14.5397 28.8231C13.9988 29.4439 13.265 29.7927 12.5 29.7927C11.735 29.7927 11.0012 29.4439 10.4603 28.8231C9.9193 28.2023 9.61539 27.3603 9.61539 26.4824V25.3789H15.3846V26.4824ZM23.0769 23.1721H1.92308V21.422L4.52596 18.435C4.7063 18.2281 4.80764 17.9475 4.80769 17.6549V13.2412C4.80769 10.9 5.61813 8.6547 7.06072 6.99923C8.5033 5.34376 10.4599 4.41373 12.5 4.41373C14.5401 4.41373 16.4967 5.34376 17.9393 6.99923C19.3819 8.6547 20.1923 10.9 20.1923 13.2412V17.6549C20.1924 17.9475 20.2937 18.2281 20.474 18.435L23.0769 21.422V23.1721Z" fill="#3A4CBA"/>
</svg>
