<svg width="21" height="25" viewBox="0 0 21 25" fill="none" xmlns="http://www.w3.org/2000/svg">
<path d="M0.475872 15.7696L2.55818 13.436V10.3447C2.56057 8.20836 3.2697 6.14891 4.54846 4.56457C5.82723 2.98023 7.58477 1.98353 9.48126 1.76721V0H11.0197V1.76721C12.9162 1.98353 14.6737 2.98023 15.9525 4.56457C17.2313 6.14891 17.9404 8.20836 17.9428 10.3447V13.436L20.0251 15.7696C20.1694 15.9312 20.2504 16.1505 20.2505 16.3791V18.9652C20.2505 19.1939 20.1694 19.4131 20.0252 19.5748C19.8809 19.7365 19.6853 19.8273 19.4813 19.8273H14.0966V20.4971C14.1137 21.5908 13.7699 22.6531 13.1311 23.4802C12.4922 24.3074 11.6034 24.841 10.6351 24.9789C10.1004 25.0384 9.56042 24.9717 9.05004 24.7832C8.53965 24.5948 8.07011 24.2887 7.67162 23.8847C7.27313 23.4806 6.95451 22.9876 6.73625 22.4373C6.518 21.887 6.40493 21.2916 6.40433 20.6893V19.8273H1.01972C0.815706 19.8273 0.620049 19.7365 0.47579 19.5748C0.331532 19.4131 0.250488 19.1939 0.250488 18.9652V16.3791C0.250532 16.1505 0.331604 15.9312 0.475872 15.7696ZM7.9428 20.6893C7.9428 21.3752 8.18593 22.033 8.6187 22.518C9.05148 23.003 9.63845 23.2755 10.2505 23.2755C10.8625 23.2755 11.4495 23.003 11.8823 22.518C12.315 22.033 12.5582 21.3752 12.5582 20.6893V19.8273H7.9428V20.6893ZM1.78895 18.1032H18.712V16.736L16.6297 14.4024C16.4855 14.2407 16.4044 14.0215 16.4043 13.7929V10.3447C16.4043 8.51562 15.756 6.76148 14.6019 5.46815C13.4478 4.17481 11.8826 3.44822 10.2505 3.44822C8.61839 3.44822 7.05313 4.17481 5.89906 5.46815C4.74499 6.76148 4.09664 8.51562 4.09664 10.3447V13.7929C4.0966 14.0215 4.01553 14.2407 3.87126 14.4024L1.78895 16.736V18.1032Z" fill="#045BA2"/>
</svg>
