<svg width="25" height="28" viewBox="0 0 25 28" fill="none" xmlns="http://www.w3.org/2000/svg">
<path d="M12.1127 5.57267C11.3469 5.57267 10.6909 5.29989 10.1447 4.75433C9.59844 4.209 9.32533 3.55334 9.32533 2.78734C9.32533 2.02156 9.59811 1.36556 10.1437 0.819334C10.689 0.273112 11.3447 0 12.1107 0C12.8764 0 13.5324 0.272779 14.0787 0.818335C14.6249 1.36367 14.898 2.01933 14.898 2.78533C14.898 3.55111 14.6252 4.20711 14.0797 4.75333C13.5343 5.29956 12.8787 5.57267 12.1127 5.57267ZM7.96833 27.0573V9.77967C6.64522 9.67078 5.30022 9.50734 3.93333 9.28934C2.56622 9.07134 1.25511 8.79033 0 8.44633L0.730667 5.56467C2.48511 6.042 4.34411 6.38489 6.30767 6.59334C8.27122 6.80178 10.2059 6.906 12.1117 6.906C14.0174 6.906 15.9534 6.80178 17.9197 6.59334C19.8859 6.38489 21.7489 6.042 23.5087 5.56467L24.2313 8.44633C22.9656 8.77967 21.6518 9.05745 20.29 9.27967C18.9282 9.50189 17.5832 9.66845 16.255 9.77933V27.0573H13.3493V18.9697H10.874V27.0573H7.96833Z" fill="#045BA2"/>
</svg>
