<svg width="32" height="32" viewBox="0 0 32 32" fill="none" xmlns="http://www.w3.org/2000/svg">
<path d="M31.8359 31.3601C31.7278 31.5547 31.5724 31.7163 31.3852 31.8286C31.1981 31.9409 30.9858 32 30.7697 32H1.22957C1.01363 31.9998 0.801534 31.9405 0.614599 31.828C0.427664 31.7156 0.272464 31.554 0.164585 31.3595C0.0567063 31.165 -5.54003e-05 30.9444 4.05742e-08 30.7198C5.54815e-05 30.4953 0.056926 30.2747 0.164901 30.0803C2.50811 25.868 6.11907 22.8476 10.3332 21.4158C8.24868 20.1255 6.62917 18.1594 5.72334 15.8195C4.81751 13.4795 4.67543 10.895 5.31894 8.46297C5.96244 6.03091 7.35594 3.88573 9.28544 2.35687C11.2149 0.828009 13.5737 0 15.9996 0C18.4255 0 20.7843 0.828009 22.7138 2.35687C24.6433 3.88573 26.0368 6.03091 26.6803 8.46297C27.3238 10.895 27.1817 13.4795 26.2759 15.8195C25.3701 18.1594 23.7506 20.1255 21.6661 21.4158C25.8802 22.8476 29.4911 25.868 31.8343 30.0803C31.9426 30.2747 31.9997 30.4953 32 30.72C32.0003 30.9446 31.9437 31.1654 31.8359 31.3601Z" fill="#045BA2"/>
</svg>
