<svg width="29" height="32" viewBox="0 0 29 32" fill="none" xmlns="http://www.w3.org/2000/svg">
<path d="M26.134 26.0377C20.6132 31.4053 11.7046 31.28 6.337 25.7592C0.969412 20.2384 1.09476 11.3297 6.61554 5.96215C11.9212 0.803689 20.2682 0.63826 25.7852 5.5954L23.1323 8.17463C18.8004 4.43636 12.2877 4.91047 8.54948 9.24237C4.81121 13.5743 5.28532 20.087 9.61722 23.8252C13.6703 27.2767 19.6831 27.1492 23.5548 23.3849L22.1606 21.9509C18.8625 25.1575 13.6304 25.0839 10.4238 21.7858C7.2172 18.4876 7.29081 13.2556 10.5889 10.049C13.6003 7.12119 18.3424 6.83432 21.6287 9.49711L18.4739 12.5643C16.9324 11.5526 14.879 11.7358 13.5167 13.0603C11.9394 14.5939 11.9035 17.1392 13.4371 18.7166C14.9707 20.294 17.5161 20.3298 19.0934 18.7962C20.384 17.5414 20.625 15.494 19.7267 13.9963L28.4022 5.56151C28.2648 5.2767 28.0557 5.06161 27.8465 4.84651C21.7122 -1.46295 11.5308 -1.6062 5.22136 4.52818C-1.08811 10.6626 -1.23136 20.8439 4.90303 27.1534C11.0374 33.4628 21.2187 33.6061 27.5282 27.4717L26.134 26.0377ZM17.769 17.4339C16.9803 18.2007 15.7076 18.1828 14.9408 17.3941C14.174 16.6054 14.1919 15.3328 14.9806 14.566C15.7693 13.7992 17.042 13.8171 17.8088 14.6058C18.5755 15.3944 18.5576 16.6671 17.769 17.4339Z" fill="#045BA2"/>
</svg>
