<svg width="29" height="32" viewBox="0 0 29 32" fill="none" xmlns="http://www.w3.org/2000/svg">
<path d="M26.3844 26.038C20.8636 31.4055 11.9549 31.2802 6.58736 25.7594C1.21978 20.2386 1.34512 11.33 6.8659 5.96239C12.1716 0.803933 20.5186 0.638504 26.0356 5.59565L23.3827 8.17488C19.0508 4.43661 12.5381 4.91072 8.79985 9.24261C5.06158 13.5745 5.53569 20.0872 9.86759 23.8255C13.9206 27.277 19.9334 27.1494 23.8052 23.3851L22.411 21.9511C19.1129 25.1578 13.8808 25.0841 10.6742 21.786C7.46757 18.4879 7.54118 13.2558 10.8393 10.0492C13.8506 7.12143 18.5928 6.83456 21.879 9.49735L18.7243 12.5645C17.1827 11.5528 15.1294 11.7361 13.7671 13.0605C12.1897 14.5941 12.1539 17.1395 13.6875 18.7168C15.2211 20.2942 17.7664 20.33 19.3438 18.7964C20.6344 17.5417 20.8753 15.4942 19.9771 13.9965L28.6526 5.56175C28.5152 5.27695 28.306 5.06185 28.0969 4.84676C21.9625 -1.46271 11.7812 -1.60596 5.47173 4.52842C-0.83774 10.6628 -0.980989 20.8441 5.15339 27.1536C11.2878 33.4631 21.4691 33.6063 27.7786 27.4719L26.3844 26.038ZM18.0193 17.4341C17.2306 18.2009 15.958 18.183 15.1912 17.3944C14.4244 16.6057 14.4423 15.333 15.231 14.5662C16.0197 13.7994 17.2923 13.8173 18.0591 14.606C18.8259 15.3947 18.808 16.6673 18.0193 17.4341Z" fill="white"/>
</svg>
