<svg width="81" height="92" viewBox="0 0 81 92" fill="none" xmlns="http://www.w3.org/2000/svg">
<path d="M6.89279 74.6602C22.7235 90.0516 48.2688 89.6922 63.6603 73.8615C79.0517 58.0308 78.6922 32.4854 62.8615 17.094C47.6476 2.30227 23.7128 1.82791 7.89308 16.0424L15.5 23.4383C27.9216 12.7189 46.5966 14.0784 57.316 26.5C68.0354 38.9216 66.6759 57.5966 54.2543 68.3159C42.6322 78.213 25.3907 77.8472 14.2887 67.0532L18.2864 62.9414C27.7437 72.1362 42.7466 71.9251 51.9414 62.4678C61.1363 53.0105 60.9252 38.0077 51.4679 28.8128C42.833 20.4175 29.2351 19.5949 19.8118 27.2304L28.8579 36.0255C33.2783 33.1244 39.1663 33.6499 43.0726 37.4478C47.5957 41.8453 47.6983 49.144 43.3008 53.667C38.9033 58.1901 31.6046 58.2928 27.0815 53.8952C23.3808 50.2973 22.6899 44.4263 25.2656 40.1317L0.388812 15.9452C0.782882 15.1285 1.38255 14.5117 1.98221 13.895C19.5724 -4.19727 48.7671 -4.60804 66.8593 12.9821C84.9515 30.5723 85.3623 59.767 67.7721 77.8592C50.1819 95.9515 20.9873 96.3622 2.89503 78.7721L6.89279 74.6602ZM30.8794 49.989C33.1409 52.1877 36.7903 52.1364 38.989 49.8749C41.1878 47.6133 41.1365 43.964 38.8749 41.7652C36.6134 39.5665 32.9641 39.6178 30.7653 41.8793C28.5665 44.1409 28.6179 47.7902 30.8794 49.989Z" fill="url(#paint0_linear_473_370)"/>
<defs>
<linearGradient id="paint0_linear_473_370" x1="2.89502" y1="78.7721" x2="66.8593" y2="12.9821" gradientUnits="userSpaceOnUse">
<stop stop-color="#C65BCF"/>
<stop offset="1" stop-color="#1230AE"/>
</linearGradient>
</defs>
</svg>
