<svg width="23" height="32" viewBox="0 0 23 32" fill="none" xmlns="http://www.w3.org/2000/svg">
<path d="M11.4286 0C5.11929 0 0 4.60786 0 10.2857C0 19.4286 11.4286 32 11.4286 32C11.4286 32 22.8571 19.4286 22.8571 10.2857C22.8571 4.60786 17.7379 0 11.4286 0ZM11.4286 16C10.5244 16 9.64059 15.7319 8.88882 15.2296C8.13706 14.7273 7.55112 14.0133 7.20512 13.178C6.85912 12.3427 6.76859 11.4235 6.94498 10.5367C7.12137 9.64996 7.55676 8.83541 8.19608 8.19608C8.83541 7.55676 9.64996 7.12137 10.5367 6.94498C11.4235 6.76859 12.3427 6.85912 13.178 7.20512C14.0133 7.55112 14.7273 8.13706 15.2296 8.88882C15.7319 9.64059 16 10.5244 16 11.4286C15.9987 12.6406 15.5166 13.8026 14.6596 14.6596C13.8026 15.5166 12.6406 15.9987 11.4286 16Z" fill="#FA1100"/>
</svg>
