<svg width="248" height="249" viewBox="0 0 248 249" fill="none" xmlns="http://www.w3.org/2000/svg">
<path d="M115.088 229.282C101.628 227.899 89.0733 224.311 77.4225 218.518C65.77 212.726 55.6442 205.173 47.0451 195.859C38.4443 186.546 31.6613 175.821 26.6962 163.684C21.7293 151.545 19.2458 138.484 19.2458 124.5C19.2458 109.219 22.2141 95.0463 28.1506 81.9807C34.0854 68.9134 42.1902 57.6246 52.4649 48.1141H28.2824V24.511H94.4208V90.9162H70.9125V63.3887C62.2635 70.7498 55.4082 79.6861 50.3466 90.1977C45.285 100.709 42.7542 112.143 42.7542 124.5C42.7542 145.439 49.6861 163.521 63.55 178.748C77.4139 193.977 94.5931 202.888 115.088 205.482V229.282ZM153.579 224.489V158.084H177.088V185.611C185.737 178.119 192.592 169.15 197.653 158.704C202.715 148.258 205.246 136.857 205.246 124.5C205.246 103.562 198.314 85.4788 184.45 70.2518C170.586 55.023 153.407 46.1118 132.913 43.518V19.7178C159.914 22.3945 182.637 33.6471 201.084 53.4754C219.531 73.3055 228.754 96.9804 228.754 124.5C228.754 139.781 225.786 153.954 219.849 167.019C213.915 180.087 205.81 191.376 195.535 200.886H219.718V224.489H153.579Z" fill="#3A4CBA"/>
</svg>
