<svg width="248" height="249" viewBox="0 0 248 249" fill="none" xmlns="http://www.w3.org/2000/svg">
<path d="M124 230.359C109.377 230.359 95.6557 227.582 82.8372 222.027C70.0169 216.473 58.8655 208.937 49.383 199.418C39.9022 189.897 32.3958 178.701 26.8641 165.829C21.3323 152.958 18.5664 139.182 18.5664 124.5C18.5664 109.817 21.3323 96.0412 26.8641 83.171C32.3958 70.2991 39.9022 59.1027 49.383 49.582C58.8655 40.0629 70.0169 32.5263 82.8372 26.9722C95.6557 21.4182 109.377 18.6411 124 18.6411C135.194 18.6411 145.786 20.2423 155.775 23.4447C165.764 26.6472 175.019 31.1464 183.541 36.9426L166.395 54.4167C160.097 50.5987 153.424 47.615 146.377 45.4657C139.328 43.318 131.869 42.2442 124 42.2442C101.299 42.2442 81.97 50.2451 66.0119 66.2468C50.0538 82.2502 42.0747 101.668 42.0747 124.5C42.0747 147.332 50.0538 166.749 66.0119 182.753C81.97 198.755 101.299 206.755 124 206.755C146.699 206.755 166.028 198.755 181.988 182.753C197.946 166.749 205.925 147.332 205.925 124.5C205.925 121.65 205.774 118.8 205.471 115.948C205.167 113.099 204.713 110.328 204.107 107.635L223.306 88.3559C225.283 94.0138 226.799 99.854 227.853 105.877C228.907 111.898 229.434 118.097 229.434 124.474C229.434 139.174 226.668 152.958 221.136 165.829C215.604 178.701 208.098 189.897 198.617 199.418C189.134 208.937 177.983 216.473 165.163 222.027C152.344 227.582 138.623 230.359 124 230.359ZM109.347 173.465L64.5058 128.442L80.6387 112.18L109.347 141.004L213.236 36.4368L229.434 52.697L109.347 173.465Z" fill="#045BA2"/>
</svg>
