<svg width="32" height="32" viewBox="0 0 32 32" fill="none" xmlns="http://www.w3.org/2000/svg">
<path d="M26.1174 28.3032L17.6617 19.8472C17.0004 20.3595 16.2377 20.7658 15.3737 21.0662C14.5097 21.3667 13.5862 21.5169 12.6031 21.5169C10.1328 21.5169 8.04027 20.6595 6.32538 18.9446C4.6105 17.2295 3.75305 15.1369 3.75305 12.6669C3.75305 10.1969 4.6105 8.10434 6.32538 6.38923C8.04027 4.67434 10.1328 3.81689 12.6031 3.81689C15.0731 3.81689 17.1655 4.67434 18.8804 6.38923C20.5955 8.10434 21.4531 10.1969 21.4531 12.6669C21.4531 13.6553 21.3028 14.5789 21.0024 15.4376C20.7017 16.2962 20.2954 17.0536 19.7834 17.7096L28.247 26.1812L26.1174 28.3032ZM12.6031 18.4836C14.2217 18.4836 15.5958 17.9188 16.7254 16.7892C17.8549 15.6599 18.4197 14.2858 18.4197 12.6669C18.4197 11.048 17.8549 9.6739 16.7254 8.54456C15.5958 7.41501 14.2217 6.85023 12.6031 6.85023C10.9842 6.85023 9.60994 7.41501 8.48038 8.54456C7.35105 9.6739 6.78638 11.048 6.78638 12.6669C6.78638 14.2858 7.35105 15.6599 8.48038 16.7892C9.60994 17.9188 10.9842 18.4836 12.6031 18.4836Z" fill="#045BA2"/>
</svg>
