<svg width="32" height="32" viewBox="0 0 32 32" fill="none" xmlns="http://www.w3.org/2000/svg">
<path d="M26.1173 28.3032L17.6617 19.8472C17.0003 20.3595 16.2377 20.7658 15.3737 21.0662C14.5097 21.3667 13.5861 21.5169 12.603 21.5169C10.1328 21.5169 8.04021 20.6595 6.32532 18.9446C4.61044 17.2295 3.75299 15.1369 3.75299 12.6669C3.75299 10.1969 4.61044 8.10434 6.32532 6.38923C8.04021 4.67434 10.1328 3.81689 12.603 3.81689C15.073 3.81689 17.1654 4.67434 18.8803 6.38923C20.5954 8.10434 21.453 10.1969 21.453 12.6669C21.453 13.6553 21.3028 14.5789 21.0023 15.4376C20.7017 16.2962 20.2953 17.0536 19.7833 17.7096L28.247 26.1812L26.1173 28.3032ZM12.603 18.4836C14.2217 18.4836 15.5958 17.9188 16.7253 16.7892C17.8549 15.6599 18.4197 14.2858 18.4197 12.6669C18.4197 11.048 17.8549 9.6739 16.7253 8.54456C15.5958 7.41501 14.2217 6.85023 12.603 6.85023C10.9841 6.85023 9.60988 7.41501 8.48032 8.54456C7.35099 9.6739 6.78632 11.048 6.78632 12.6669C6.78632 14.2858 7.35099 15.6599 8.48032 16.7892C9.60988 17.9188 10.9841 18.4836 12.603 18.4836Z" fill="black"/>
</svg>
