<svg width="32" height="32" viewBox="0 0 32 32" fill="none" xmlns="http://www.w3.org/2000/svg">
<path d="M29.4513 16.3279C29.4574 16.1078 29.4574 15.8876 29.4513 15.6675L31.7323 12.8178C31.8519 12.6681 31.9347 12.4925 31.974 12.305C32.0133 12.1176 32.008 11.9235 31.9586 11.7384C31.584 10.3331 31.0246 8.98358 30.2952 7.72528C30.1996 7.56065 30.0669 7.42061 29.9077 7.3163C29.7484 7.212 29.567 7.1463 29.3779 7.12445L25.7516 6.72085C25.6007 6.56185 25.4478 6.40897 25.2929 6.2622L24.8648 2.62667C24.8428 2.43742 24.7769 2.25594 24.6723 2.09668C24.5677 1.93742 24.4274 1.8048 24.2625 1.70938C23.0043 0.980518 21.6547 0.422193 20.2493 0.0490875C20.0643 -0.00035418 19.8702 -0.00563747 19.6827 0.0336634C19.4953 0.0729643 19.3196 0.15575 19.17 0.275352L16.3279 2.54412C16.1078 2.54412 15.8876 2.54412 15.6675 2.54412L12.8178 0.267708C12.6681 0.148106 12.4925 0.0653203 12.305 0.0260194C12.1176 -0.0132814 11.9235 -0.00799844 11.7384 0.0414433C10.3331 0.416045 8.98358 0.975372 7.72528 1.7048C7.56065 1.80039 7.42061 1.93309 7.3163 2.09233C7.212 2.25158 7.1463 2.43298 7.12445 2.62209L6.72085 6.25456C6.56185 6.40642 6.40897 6.5593 6.2622 6.7132L2.62667 7.13057C2.43742 7.15259 2.25594 7.21851 2.09668 7.32309C1.93742 7.42767 1.8048 7.56801 1.70938 7.73292C0.980668 8.99139 0.421866 10.3408 0.0475587 11.7461C-0.00167395 11.9312 -0.00670943 12.1254 0.032858 12.3129C0.0724255 12.5004 0.155489 12.6759 0.275352 12.8254L2.54412 15.6675C2.54412 15.8876 2.54412 16.1078 2.54412 16.3279L0.267708 19.1776C0.148106 19.3273 0.0653203 19.5029 0.0260194 19.6904C-0.0132814 19.8778 -0.00799844 20.0719 0.0414433 20.257C0.416045 21.6624 0.975372 23.0118 1.7048 24.2701C1.80039 24.4348 1.93309 24.5748 2.09233 24.6791C2.25158 24.7834 2.43298 24.8491 2.62209 24.871L6.24844 25.2746C6.4003 25.4336 6.55319 25.5864 6.70709 25.7332L7.13057 29.3687C7.15259 29.558 7.21851 29.7395 7.32309 29.8987C7.42767 30.058 7.56801 30.1906 7.73292 30.286C8.99139 31.0147 10.3408 31.5736 11.7461 31.9479C11.9312 31.9971 12.1254 32.0021 12.3129 31.9626C12.5004 31.923 12.6759 31.8399 12.8254 31.7201L15.6675 29.4513C15.8876 29.4574 16.1078 29.4574 16.3279 29.4513L19.1776 31.7323C19.3273 31.8519 19.5029 31.9347 19.6904 31.974C19.8778 32.0133 20.0719 32.008 20.257 31.9586C21.6626 31.5846 23.0121 31.0253 24.2701 30.2952C24.4348 30.1996 24.5748 30.0669 24.6791 29.9077C24.7834 29.7484 24.8491 29.567 24.871 29.3779L25.2746 25.7516C25.4336 25.6007 25.5864 25.4478 25.7332 25.2929L29.3687 24.8648C29.558 24.8428 29.7395 24.7769 29.8987 24.6723C30.058 24.5677 30.1906 24.4274 30.286 24.2625C31.0147 23.004 31.5736 21.6546 31.9479 20.2493C31.9971 20.0642 32.0021 19.87 31.9626 19.6825C31.923 19.4951 31.8399 19.3195 31.7201 19.17L29.4513 16.3279ZM15.9977 22.113C14.7882 22.113 13.6059 21.7543 12.6002 21.0824C11.5946 20.4104 10.8108 19.4553 10.3479 18.3379C9.88509 17.2205 9.76398 15.9909 9.99994 14.8047C10.2359 13.6184 10.8183 12.5288 11.6736 11.6736C12.5288 10.8183 13.6184 10.2359 14.8047 9.99994C15.9909 9.76398 17.2205 9.88509 18.3379 10.3479C19.4553 10.8108 20.4104 11.5946 21.0824 12.6002C21.7543 13.6059 22.113 14.7882 22.113 15.9977C22.113 17.6196 21.4687 19.175 20.3219 20.3219C19.175 21.4687 17.6196 22.113 15.9977 22.113Z" fill="#3A4CBA"/>
</svg>
