<svg width="370" height="370" viewBox="0 0 370 370" fill="none" xmlns="http://www.w3.org/2000/svg">
<path d="M333.74 180.479H244.674C244.674 180.479 253.509 156.355 267.103 156.355C280.697 156.355 284.952 173.005 284.952 173.005C284.952 173.005 294.128 163.962 301.661 163.962C309.194 163.962 315.721 175.913 315.721 175.913C315.721 175.913 326.392 169.46 333.74 180.479Z" fill="#EBEBEB"/>
<path d="M227.957 54.9302H186.325C186.325 54.9302 195.626 41.44 202.96 41.44C210.293 41.44 212.454 50.4384 212.454 50.4384C212.454 50.4384 217.634 46.25 222.414 46.9974C227.195 47.7448 227.957 54.9302 227.957 54.9302Z" fill="#EBEBEB"/>
<path d="M307.1 83.0798H265.46C265.46 83.0798 274.762 69.597 282.088 69.597C289.414 69.597 291.56 78.588 291.56 78.588C291.56 78.588 296.74 74.3922 301.52 75.1396C306.301 75.887 307.1 83.0798 307.1 83.0798Z" fill="#EBEBEB"/>
<path d="M248.522 150.435H206.889C206.889 150.435 216.191 136.952 223.517 136.952C230.843 136.952 233.011 145.943 233.011 145.943C233.011 145.943 238.191 141.747 242.979 142.494C247.767 143.242 248.522 150.435 248.522 150.435Z" fill="#EBEBEB"/>
<path d="M77.8702 179.198H36.26C36.26 179.198 45.5396 165.76 52.8656 165.76C60.1916 165.76 62.3672 174.744 62.3672 174.744C62.3672 174.744 67.5472 170.548 72.3276 171.303C77.108 172.057 77.8702 179.198 77.8702 179.198Z" fill="#EBEBEB"/>
<path d="M133.133 95.6598H52.0368C52.0368 95.6598 63.1368 70.8698 75.0212 69.3158C86.9056 67.7618 92.5814 87.7418 92.5814 87.7418C92.5814 87.7418 100.248 80.6822 106.271 80.6822C112.295 80.6822 116.92 89.9766 116.92 89.9766C116.92 89.9766 128.997 83.62 133.133 95.6598Z" fill="#EBEBEB"/>
<path d="M274.71 198.764H250.172V327.413H274.71V198.764Z" fill="#DBDBDB"/>
<path d="M258.748 202.945H253.975V207.859H258.748V202.945Z" fill="#EBEBEB"/>
<path d="M264.853 202.945H260.08V207.859H264.853V202.945Z" fill="#EBEBEB"/>
<path d="M258.748 211.277H253.975V216.191H258.748V211.277Z" fill="#EBEBEB"/>
<path d="M264.853 211.277H260.08V216.191H264.853V211.277Z" fill="#EBEBEB"/>
<path d="M258.748 219.617H253.975V224.531H258.748V219.617Z" fill="#EBEBEB"/>
<path d="M264.853 219.617H260.08V224.531H264.853V219.617Z" fill="#EBEBEB"/>
<path d="M258.748 227.957H253.975V232.871H258.748V227.957Z" fill="#EBEBEB"/>
<path d="M264.853 227.957H260.08V232.871H264.853V227.957Z" fill="#EBEBEB"/>
<path d="M258.748 236.297H253.975V241.21H258.748V236.297Z" fill="#EBEBEB"/>
<path d="M264.853 236.297H260.08V241.21H264.853V236.297Z" fill="#EBEBEB"/>
<path d="M258.748 244.637H253.975V249.55H258.748V244.637Z" fill="#EBEBEB"/>
<path d="M264.853 244.637H260.08V249.55H264.853V244.637Z" fill="#EBEBEB"/>
<path d="M258.748 252.976H253.975V257.89H258.748V252.976Z" fill="#EBEBEB"/>
<path d="M264.853 252.976H260.08V257.89H264.853V252.976Z" fill="#EBEBEB"/>
<path d="M258.748 261.316H253.975V266.23H258.748V261.316Z" fill="#EBEBEB"/>
<path d="M264.853 261.316H260.08V266.23H264.853V261.316Z" fill="#EBEBEB"/>
<path d="M258.748 269.656H253.975V274.57H258.748V269.656Z" fill="#EBEBEB"/>
<path d="M264.853 269.656H260.08V274.57H264.853V269.656Z" fill="#EBEBEB"/>
<path d="M258.748 277.996H253.975V282.909H258.748V277.996Z" fill="#EBEBEB"/>
<path d="M264.853 277.996H260.08V282.909H264.853V277.996Z" fill="#EBEBEB"/>
<path d="M258.748 286.336H253.975V291.249H258.748V286.336Z" fill="#EBEBEB"/>
<path d="M264.853 286.336H260.08V291.249H264.853V286.336Z" fill="#EBEBEB"/>
<path d="M258.748 294.675H253.975V299.589H258.748V294.675Z" fill="#EBEBEB"/>
<path d="M264.853 294.675H260.08V299.589H264.853V294.675Z" fill="#EBEBEB"/>
<path d="M258.748 303.015H253.975V307.929H258.748V303.015Z" fill="#EBEBEB"/>
<path d="M264.853 303.015H260.08V307.929H264.853V303.015Z" fill="#EBEBEB"/>
<path d="M258.748 311.355H253.975V316.269H258.748V311.355Z" fill="#EBEBEB"/>
<path d="M266.126 316.269H270.899V311.355H266.126V316.269Z" fill="#EBEBEB"/>
<path d="M266.126 307.929H270.899V303.015H266.126V307.929Z" fill="#EBEBEB"/>
<path d="M266.126 299.589H270.899V294.675H266.126V299.589Z" fill="#EBEBEB"/>
<path d="M266.126 291.249H270.899V286.336H266.126V291.249Z" fill="#EBEBEB"/>
<path d="M266.126 282.909H270.899V277.996H266.126V282.909Z" fill="#EBEBEB"/>
<path d="M266.126 274.577H270.899V269.663H266.126V274.577Z" fill="#EBEBEB"/>
<path d="M266.126 266.237H270.899V261.324H266.126V266.237Z" fill="#EBEBEB"/>
<path d="M266.126 257.897H270.899V252.984H266.126V257.897Z" fill="#EBEBEB"/>
<path d="M266.126 249.558H270.899V244.644H266.126V249.558Z" fill="#EBEBEB"/>
<path d="M266.126 241.218H270.899V236.304H266.126V241.218Z" fill="#EBEBEB"/>
<path d="M266.126 232.878H270.899V227.964H266.126V232.878Z" fill="#EBEBEB"/>
<path d="M266.126 224.538H270.899V219.625H266.126V224.538Z" fill="#EBEBEB"/>
<path d="M266.126 216.198H270.899V211.285H266.126V216.198Z" fill="#EBEBEB"/>
<path d="M266.126 207.851H270.899V202.938H266.126V207.851Z" fill="#EBEBEB"/>
<path d="M264.853 311.355H260.08V316.269H264.853V311.355Z" fill="#EBEBEB"/>
<path d="M294.061 198.764H274.71V327.413H294.061V198.764Z" fill="#A6A6A6"/>
<path d="M288.126 316.269H292.063V311.355H288.126V316.269Z" fill="#C7C7C7"/>
<path d="M283.087 316.269H287.024V311.355H283.087V316.269Z" fill="#C7C7C7"/>
<path d="M288.126 307.929H292.063V303.015H288.126V307.929Z" fill="#C7C7C7"/>
<path d="M283.087 307.929H287.024V303.015H283.087V307.929Z" fill="#C7C7C7"/>
<path d="M288.126 299.589H292.063V294.675H288.126V299.589Z" fill="#C7C7C7"/>
<path d="M283.087 299.589H287.024V294.675H283.087V299.589Z" fill="#C7C7C7"/>
<path d="M288.126 291.249H292.063V286.336H288.126V291.249Z" fill="#C7C7C7"/>
<path d="M283.087 291.249H287.024V286.336H283.087V291.249Z" fill="#C7C7C7"/>
<path d="M288.126 282.909H292.063V277.996H288.126V282.909Z" fill="#C7C7C7"/>
<path d="M283.087 282.909H287.024V277.996H283.087V282.909Z" fill="#C7C7C7"/>
<path d="M288.126 274.577H292.063V269.663H288.126V274.577Z" fill="#C7C7C7"/>
<path d="M283.087 274.577H287.024V269.663H283.087V274.577Z" fill="#C7C7C7"/>
<path d="M288.126 266.237H292.063V261.324H288.126V266.237Z" fill="#C7C7C7"/>
<path d="M283.087 266.237H287.024V261.324H283.087V266.237Z" fill="#C7C7C7"/>
<path d="M288.126 257.897H292.063V252.984H288.126V257.897Z" fill="#C7C7C7"/>
<path d="M283.087 257.897H287.024V252.984H283.087V257.897Z" fill="#C7C7C7"/>
<path d="M288.126 249.558H292.063V244.644H288.126V249.558Z" fill="#C7C7C7"/>
<path d="M283.087 249.558H287.024V244.644H283.087V249.558Z" fill="#C7C7C7"/>
<path d="M288.126 241.218H292.063V236.304H288.126V241.218Z" fill="#C7C7C7"/>
<path d="M283.087 241.218H287.024V236.304H283.087V241.218Z" fill="#C7C7C7"/>
<path d="M288.126 232.878H292.063V227.964H288.126V232.878Z" fill="#C7C7C7"/>
<path d="M283.087 232.878H287.024V227.964H283.087V232.878Z" fill="#C7C7C7"/>
<path d="M288.126 224.538H292.063V219.625H288.126V224.538Z" fill="#C7C7C7"/>
<path d="M283.087 224.538H287.024V219.625H283.087V224.538Z" fill="#C7C7C7"/>
<path d="M288.126 216.198H292.063V211.285H288.126V216.198Z" fill="#C7C7C7"/>
<path d="M283.087 216.198H287.024V211.285H283.087V216.198Z" fill="#C7C7C7"/>
<path d="M288.126 207.851H292.063V202.938H288.126V207.851Z" fill="#C7C7C7"/>
<path d="M282.029 202.945H278.092V207.859H282.029V202.945Z" fill="#C7C7C7"/>
<path d="M282.029 211.277H278.092V216.191H282.029V211.277Z" fill="#C7C7C7"/>
<path d="M282.029 219.617H278.092V224.531H282.029V219.617Z" fill="#C7C7C7"/>
<path d="M282.029 227.957H278.092V232.871H282.029V227.957Z" fill="#C7C7C7"/>
<path d="M282.029 236.297H278.092V241.21H282.029V236.297Z" fill="#C7C7C7"/>
<path d="M282.029 244.637H278.092V249.55H282.029V244.637Z" fill="#C7C7C7"/>
<path d="M282.029 252.976H278.092V257.89H282.029V252.976Z" fill="#C7C7C7"/>
<path d="M282.029 261.316H278.092V266.23H282.029V261.316Z" fill="#C7C7C7"/>
<path d="M282.029 269.656H278.092V274.57H282.029V269.656Z" fill="#C7C7C7"/>
<path d="M282.029 277.996H278.092V282.909H282.029V277.996Z" fill="#C7C7C7"/>
<path d="M282.029 286.336H278.092V291.249H282.029V286.336Z" fill="#C7C7C7"/>
<path d="M282.029 294.675H278.092V299.589H282.029V294.675Z" fill="#C7C7C7"/>
<path d="M282.029 303.015H278.092V307.929H282.029V303.015Z" fill="#C7C7C7"/>
<path d="M282.029 311.355H278.092V316.269H282.029V311.355Z" fill="#C7C7C7"/>
<path d="M283.087 207.851H287.024V202.938H283.087V207.851Z" fill="#C7C7C7"/>
<path d="M100.462 191.823H71.4322V327.406H100.462V191.823Z" fill="#EBEBEB"/>
<path d="M100.462 188.855H70.7292V191.823H100.462V188.855Z" fill="#C7C7C7"/>
<path d="M76.9896 196.204H74.0518V327.413H76.9896V196.204Z" fill="white"/>
<path d="M82.2066 196.204H79.2688V327.413H82.2066V196.204Z" fill="white"/>
<path d="M87.4162 196.204H84.4784V327.413H87.4162V196.204Z" fill="white"/>
<path d="M92.6332 196.204H89.688V327.413H92.6332V196.204Z" fill="white"/>
<path d="M97.8354 196.204H94.8976V327.413H97.8354V196.204Z" fill="white"/>
<path d="M76.9896 199.955H74.0518V205.816H76.9896V199.955Z" fill="#EBEBEB"/>
<path d="M82.2066 199.955H79.2688V205.816H82.2066V199.955Z" fill="#EBEBEB"/>
<path d="M87.4162 199.955H84.4784V205.816H87.4162V199.955Z" fill="#EBEBEB"/>
<path d="M92.6332 199.955H89.688V205.816H92.6332V199.955Z" fill="#EBEBEB"/>
<path d="M97.8354 199.955H94.8976V205.816H97.8354V199.955Z" fill="#EBEBEB"/>
<path d="M76.9896 209.472H74.0518V215.333H76.9896V209.472Z" fill="#EBEBEB"/>
<path d="M82.2066 209.472H79.2688V215.333H82.2066V209.472Z" fill="#EBEBEB"/>
<path d="M87.4162 209.472H84.4784V215.333H87.4162V209.472Z" fill="#EBEBEB"/>
<path d="M92.6332 209.472H89.688V215.333H92.6332V209.472Z" fill="#EBEBEB"/>
<path d="M97.8354 209.472H94.8976V215.333H97.8354V209.472Z" fill="#EBEBEB"/>
<path d="M76.9896 218.996H74.0518V224.856H76.9896V218.996Z" fill="#EBEBEB"/>
<path d="M82.2066 218.996H79.2688V224.856H82.2066V218.996Z" fill="#EBEBEB"/>
<path d="M87.4162 218.996H84.4784V224.856H87.4162V218.996Z" fill="#EBEBEB"/>
<path d="M92.6332 218.996H89.688V224.856H92.6332V218.996Z" fill="#EBEBEB"/>
<path d="M97.8354 218.996H94.8976V224.856H97.8354V218.996Z" fill="#EBEBEB"/>
<path d="M76.9896 228.519H74.0518V234.38H76.9896V228.519Z" fill="#EBEBEB"/>
<path d="M82.2066 228.519H79.2688V234.38H82.2066V228.519Z" fill="#EBEBEB"/>
<path d="M87.4162 228.519H84.4784V234.38H87.4162V228.519Z" fill="#EBEBEB"/>
<path d="M92.6332 228.519H89.688V234.38H92.6332V228.519Z" fill="#EBEBEB"/>
<path d="M97.8354 228.519H94.8976V234.38H97.8354V228.519Z" fill="#EBEBEB"/>
<path d="M76.9896 238.043H74.0518V243.904H76.9896V238.043Z" fill="#EBEBEB"/>
<path d="M82.2066 238.043H79.2688V243.904H82.2066V238.043Z" fill="#EBEBEB"/>
<path d="M87.4162 238.043H84.4784V243.904H87.4162V238.043Z" fill="#EBEBEB"/>
<path d="M92.6332 238.043H89.688V243.904H92.6332V238.043Z" fill="#EBEBEB"/>
<path d="M97.8354 238.043H94.8976V243.904H97.8354V238.043Z" fill="#EBEBEB"/>
<path d="M76.9896 247.567H74.0518V253.428H76.9896V247.567Z" fill="#EBEBEB"/>
<path d="M82.2066 247.567H79.2688V253.428H82.2066V247.567Z" fill="#EBEBEB"/>
<path d="M87.4162 247.567H84.4784V253.428H87.4162V247.567Z" fill="#EBEBEB"/>
<path d="M92.6332 247.567H89.688V253.428H92.6332V247.567Z" fill="#EBEBEB"/>
<path d="M97.8354 247.567H94.8976V253.428H97.8354V247.567Z" fill="#EBEBEB"/>
<path d="M76.9896 257.091H74.0518V262.952H76.9896V257.091Z" fill="#EBEBEB"/>
<path d="M82.2066 257.091H79.2688V262.952H82.2066V257.091Z" fill="#EBEBEB"/>
<path d="M87.4162 257.091H84.4784V262.952H87.4162V257.091Z" fill="#EBEBEB"/>
<path d="M92.6332 257.091H89.688V262.952H92.6332V257.091Z" fill="#EBEBEB"/>
<path d="M97.8354 257.091H94.8976V262.952H97.8354V257.091Z" fill="#EBEBEB"/>
<path d="M76.9896 266.615H74.0518V272.475H76.9896V266.615Z" fill="#EBEBEB"/>
<path d="M82.2066 266.615H79.2688V272.475H82.2066V266.615Z" fill="#EBEBEB"/>
<path d="M87.4162 266.615H84.4784V272.475H87.4162V266.615Z" fill="#EBEBEB"/>
<path d="M92.6332 266.615H89.688V272.475H92.6332V266.615Z" fill="#EBEBEB"/>
<path d="M97.8354 266.615H94.8976V272.475H97.8354V266.615Z" fill="#EBEBEB"/>
<path d="M76.9896 276.138H74.0518V281.999H76.9896V276.138Z" fill="#EBEBEB"/>
<path d="M82.2066 276.138H79.2688V281.999H82.2066V276.138Z" fill="#EBEBEB"/>
<path d="M87.4162 276.138H84.4784V281.999H87.4162V276.138Z" fill="#EBEBEB"/>
<path d="M92.6332 276.138H89.688V281.999H92.6332V276.138Z" fill="#EBEBEB"/>
<path d="M97.8354 276.138H94.8976V281.999H97.8354V276.138Z" fill="#EBEBEB"/>
<path d="M76.9896 285.662H74.0518V291.523H76.9896V285.662Z" fill="#EBEBEB"/>
<path d="M82.2066 285.662H79.2688V291.523H82.2066V285.662Z" fill="#EBEBEB"/>
<path d="M87.4162 285.662H84.4784V291.523H87.4162V285.662Z" fill="#EBEBEB"/>
<path d="M92.6332 285.662H89.688V291.523H92.6332V285.662Z" fill="#EBEBEB"/>
<path d="M97.8354 285.662H94.8976V291.523H97.8354V285.662Z" fill="#EBEBEB"/>
<path d="M76.9896 295.186H74.0518V301.047H76.9896V295.186Z" fill="#EBEBEB"/>
<path d="M82.2066 295.186H79.2688V301.047H82.2066V295.186Z" fill="#EBEBEB"/>
<path d="M87.4162 295.186H84.4784V301.047H87.4162V295.186Z" fill="#EBEBEB"/>
<path d="M92.6332 295.186H89.688V301.047H92.6332V295.186Z" fill="#EBEBEB"/>
<path d="M97.8354 295.186H94.8976V301.047H97.8354V295.186Z" fill="#EBEBEB"/>
<path d="M76.9896 304.71H74.0518V310.571H76.9896V304.71Z" fill="#EBEBEB"/>
<path d="M82.2066 304.71H79.2688V310.571H82.2066V304.71Z" fill="#EBEBEB"/>
<path d="M87.4162 304.71H84.4784V310.571H87.4162V304.71Z" fill="#EBEBEB"/>
<path d="M92.6332 304.71H89.688V310.571H92.6332V304.71Z" fill="#EBEBEB"/>
<path d="M97.8354 304.71H94.8976V310.571H97.8354V304.71Z" fill="#EBEBEB"/>
<path d="M76.9896 314.234H74.0518V320.094H76.9896V314.234Z" fill="#EBEBEB"/>
<path d="M82.2066 314.234H79.2688V320.094H82.2066V314.234Z" fill="#EBEBEB"/>
<path d="M87.4162 314.234H84.4784V320.094H87.4162V314.234Z" fill="#EBEBEB"/>
<path d="M92.6332 314.234H89.688V320.094H92.6332V314.234Z" fill="#EBEBEB"/>
<path d="M97.8354 314.234H94.8976V320.094H97.8354V314.234Z" fill="#EBEBEB"/>
<path d="M76.9896 323.757H74.0518V327.413H76.9896V323.757Z" fill="#EBEBEB"/>
<path d="M82.2066 323.757H79.2688V327.413H82.2066V323.757Z" fill="#EBEBEB"/>
<path d="M87.4162 323.757H84.4784V327.413H87.4162V323.757Z" fill="#EBEBEB"/>
<path d="M92.6332 323.757H89.688V327.413H92.6332V323.757Z" fill="#EBEBEB"/>
<path d="M97.8354 323.757H94.8976V327.413H97.8354V323.757Z" fill="#EBEBEB"/>
<path d="M119.103 191.823H100.462V327.406H119.103V191.823Z" fill="#DBDBDB"/>
<path d="M119.91 188.855H100.462V191.823H119.91V188.855Z" fill="#C7C7C7"/>
<path d="M106.035 196.204H103.089V327.413H106.035V196.204Z" fill="#C7C7C7"/>
<path d="M111.237 196.204H108.299V327.413H111.237V196.204Z" fill="#C7C7C7"/>
<path d="M116.446 196.204H113.509V327.413H116.446V196.204Z" fill="#C7C7C7"/>
<path d="M106.035 199.955H103.089V205.816H106.035V199.955Z" fill="#DBDBDB"/>
<path d="M111.237 199.955H108.299V205.816H111.237V199.955Z" fill="#DBDBDB"/>
<path d="M116.446 199.955H113.509V205.816H116.446V199.955Z" fill="#DBDBDB"/>
<path d="M106.035 209.472H103.089V215.333H106.035V209.472Z" fill="#DBDBDB"/>
<path d="M111.237 209.472H108.299V215.333H111.237V209.472Z" fill="#DBDBDB"/>
<path d="M116.446 209.472H113.509V215.333H116.446V209.472Z" fill="#DBDBDB"/>
<path d="M106.035 218.996H103.089V224.856H106.035V218.996Z" fill="#DBDBDB"/>
<path d="M111.237 218.996H108.299V224.856H111.237V218.996Z" fill="#DBDBDB"/>
<path d="M116.446 218.996H113.509V224.856H116.446V218.996Z" fill="#DBDBDB"/>
<path d="M106.035 228.519H103.089V234.38H106.035V228.519Z" fill="#DBDBDB"/>
<path d="M111.237 228.519H108.299V234.38H111.237V228.519Z" fill="#DBDBDB"/>
<path d="M116.446 228.519H113.509V234.38H116.446V228.519Z" fill="#DBDBDB"/>
<path d="M106.035 238.043H103.089V243.904H106.035V238.043Z" fill="#DBDBDB"/>
<path d="M111.237 238.043H108.299V243.904H111.237V238.043Z" fill="#DBDBDB"/>
<path d="M116.446 238.043H113.509V243.904H116.446V238.043Z" fill="#DBDBDB"/>
<path d="M106.035 247.567H103.089V253.428H106.035V247.567Z" fill="#DBDBDB"/>
<path d="M111.237 247.567H108.299V253.428H111.237V247.567Z" fill="#DBDBDB"/>
<path d="M116.446 247.567H113.509V253.428H116.446V247.567Z" fill="#DBDBDB"/>
<path d="M106.035 257.091H103.089V262.952H106.035V257.091Z" fill="#DBDBDB"/>
<path d="M111.237 257.091H108.299V262.952H111.237V257.091Z" fill="#DBDBDB"/>
<path d="M116.446 257.091H113.509V262.952H116.446V257.091Z" fill="#DBDBDB"/>
<path d="M106.035 266.615H103.089V272.475H106.035V266.615Z" fill="#DBDBDB"/>
<path d="M111.237 266.615H108.299V272.475H111.237V266.615Z" fill="#DBDBDB"/>
<path d="M116.446 266.615H113.509V272.475H116.446V266.615Z" fill="#DBDBDB"/>
<path d="M106.035 276.138H103.089V281.999H106.035V276.138Z" fill="#DBDBDB"/>
<path d="M111.237 276.138H108.299V281.999H111.237V276.138Z" fill="#DBDBDB"/>
<path d="M116.446 276.138H113.509V281.999H116.446V276.138Z" fill="#DBDBDB"/>
<path d="M106.035 285.662H103.089V291.523H106.035V285.662Z" fill="#DBDBDB"/>
<path d="M111.237 285.662H108.299V291.523H111.237V285.662Z" fill="#DBDBDB"/>
<path d="M116.446 285.662H113.509V291.523H116.446V285.662Z" fill="#DBDBDB"/>
<path d="M106.035 295.186H103.089V301.047H106.035V295.186Z" fill="#DBDBDB"/>
<path d="M111.237 295.186H108.299V301.047H111.237V295.186Z" fill="#DBDBDB"/>
<path d="M116.446 295.186H113.509V301.047H116.446V295.186Z" fill="#DBDBDB"/>
<path d="M106.035 304.71H103.089V310.571H106.035V304.71Z" fill="#DBDBDB"/>
<path d="M111.237 304.71H108.299V310.571H111.237V304.71Z" fill="#DBDBDB"/>
<path d="M116.446 304.71H113.509V310.571H116.446V304.71Z" fill="#DBDBDB"/>
<path d="M106.035 314.234H103.089V320.094H106.035V314.234Z" fill="#DBDBDB"/>
<path d="M111.237 314.234H108.299V320.094H111.237V314.234Z" fill="#DBDBDB"/>
<path d="M116.446 314.234H113.509V320.094H116.446V314.234Z" fill="#DBDBDB"/>
<path d="M106.035 323.757H103.089V327.413H106.035V323.757Z" fill="#DBDBDB"/>
<path d="M111.237 323.757H108.299V327.413H111.237V323.757Z" fill="#DBDBDB"/>
<path d="M116.446 323.757H113.509V327.413H116.446V323.757Z" fill="#DBDBDB"/>
<path d="M63.8916 241.654H34.9798V327.413H63.8916V241.654Z" fill="#EBEBEB"/>
<path d="M63.8916 234.38H39.0942V241.654H63.8916V234.38Z" fill="#C7C7C7"/>
<path d="M60.7244 245.451H38.1544V327.413H60.7244V245.451Z" fill="#DBDBDB"/>
<path d="M60.7244 253.272H38.1544V255.211H60.7244V253.272Z" fill="white"/>
<path d="M60.7244 261.294H38.1544V263.233H60.7244V261.294Z" fill="white"/>
<path d="M60.7244 269.316H38.1544V271.254H60.7244V269.316Z" fill="white"/>
<path d="M60.7244 277.337H38.1544V279.276H60.7244V277.337Z" fill="white"/>
<path d="M60.7244 285.359H38.1544V287.298H60.7244V285.359Z" fill="white"/>
<path d="M60.7244 293.38H38.1544V295.319H60.7244V293.38Z" fill="white"/>
<path d="M60.7244 301.402H38.1544V303.341H60.7244V301.402Z" fill="white"/>
<path d="M60.7244 309.424H38.1544V311.362H60.7244V309.424Z" fill="white"/>
<path d="M60.7244 317.453H38.1544V319.391H60.7244V317.453Z" fill="white"/>
<path d="M60.7244 325.474H38.1544V327.413H60.7244V325.474Z" fill="white"/>
<path d="M81.9994 241.654H63.8916V327.413H81.9994V241.654Z" fill="#DBDBDB"/>
<path d="M79.2836 234.38H63.8916V241.654H79.2836V234.38Z" fill="#A6A6A6"/>
<path d="M80.3048 245.451H66.3854V327.413H80.3048V245.451Z" fill="#C7C7C7"/>
<path d="M80.3048 253.272H66.3854V255.211H80.3048V253.272Z" fill="white"/>
<path d="M80.3048 261.294H66.3854V263.233H80.3048V261.294Z" fill="white"/>
<path d="M80.3048 269.316H66.3854V271.254H80.3048V269.316Z" fill="white"/>
<path d="M80.3048 277.337H66.3854V279.276H80.3048V277.337Z" fill="white"/>
<path d="M80.3048 285.359H66.3854V287.298H80.3048V285.359Z" fill="white"/>
<path d="M80.3048 293.38H66.3854V295.319H80.3048V293.38Z" fill="white"/>
<path d="M80.3048 301.402H66.3854V303.341H80.3048V301.402Z" fill="white"/>
<path d="M80.3048 309.424H66.3854V311.362H80.3048V309.424Z" fill="white"/>
<path d="M80.3048 317.453H66.3854V319.391H80.3048V317.453Z" fill="white"/>
<path d="M80.3048 325.474H66.3854V327.413H80.3048V325.474Z" fill="white"/>
<path d="M144.914 277.204H122.566V327.406H144.914V277.204Z" fill="#DBDBDB"/>
<path d="M130.033 281.548H126.081V284.626H130.033V281.548Z" fill="#C7C7C7"/>
<path d="M130.033 288.119H126.081V291.197H130.033V288.119Z" fill="#C7C7C7"/>
<path d="M130.033 294.69H126.081V297.769H130.033V294.69Z" fill="#C7C7C7"/>
<path d="M130.033 301.261H126.081V304.34H130.033V301.261Z" fill="#C7C7C7"/>
<path d="M130.033 307.833H126.081V310.911H130.033V307.833Z" fill="#C7C7C7"/>
<path d="M130.033 314.396H126.081V317.475H130.033V314.396Z" fill="#C7C7C7"/>
<path d="M130.033 320.968H126.081V324.046H130.033V320.968Z" fill="#C7C7C7"/>
<path d="M135.723 281.548H131.772V284.626H135.723V281.548Z" fill="#C7C7C7"/>
<path d="M135.723 288.119H131.772V291.197H135.723V288.119Z" fill="#C7C7C7"/>
<path d="M135.723 294.69H131.772V297.769H135.723V294.69Z" fill="#C7C7C7"/>
<path d="M135.723 301.261H131.772V304.34H135.723V301.261Z" fill="#C7C7C7"/>
<path d="M135.723 307.833H131.772V310.911H135.723V307.833Z" fill="#C7C7C7"/>
<path d="M135.723 314.396H131.772V317.475H135.723V314.396Z" fill="#C7C7C7"/>
<path d="M135.723 320.968H131.772V324.046H135.723V320.968Z" fill="#C7C7C7"/>
<path d="M141.399 281.548H137.448V284.626H141.399V281.548Z" fill="#C7C7C7"/>
<path d="M141.399 288.119H137.448V291.197H141.399V288.119Z" fill="#C7C7C7"/>
<path d="M141.399 294.69H137.448V297.769H141.399V294.69Z" fill="#C7C7C7"/>
<path d="M141.399 301.261H137.448V304.34H141.399V301.261Z" fill="#C7C7C7"/>
<path d="M141.399 307.833H137.448V310.911H141.399V307.833Z" fill="#C7C7C7"/>
<path d="M141.399 314.396H137.448V317.475H141.399V314.396Z" fill="#C7C7C7"/>
<path d="M141.399 320.968H137.448V324.046H141.399V320.968Z" fill="#C7C7C7"/>
<path d="M160.595 277.204H144.914V327.406H160.595V277.204Z" fill="#A6A6A6"/>
<path d="M155.77 323.55H158.989V320.472H155.77V323.55Z" fill="#C7C7C7"/>
<path d="M155.77 316.986H158.989V313.908H155.77V316.986Z" fill="#C7C7C7"/>
<path d="M155.77 310.415H158.989V307.337H155.77V310.415Z" fill="#C7C7C7"/>
<path d="M155.77 303.851H158.989V300.773H155.77V303.851Z" fill="#C7C7C7"/>
<path d="M155.77 297.273H158.989V294.194H155.77V297.273Z" fill="#C7C7C7"/>
<path d="M155.77 290.702H158.989V287.623H155.77V290.702Z" fill="#C7C7C7"/>
<path d="M155.77 284.138H158.989V281.059H155.77V284.138Z" fill="#C7C7C7"/>
<path d="M151.138 323.55H154.357V320.472H151.138V323.55Z" fill="#C7C7C7"/>
<path d="M151.138 316.986H154.357V313.908H151.138V316.986Z" fill="#C7C7C7"/>
<path d="M151.138 310.415H154.357V307.337H151.138V310.415Z" fill="#C7C7C7"/>
<path d="M151.138 303.851H154.357V300.773H151.138V303.851Z" fill="#C7C7C7"/>
<path d="M151.138 297.273H154.357V294.194H151.138V297.273Z" fill="#C7C7C7"/>
<path d="M151.138 290.702H154.357V287.623H151.138V290.702Z" fill="#C7C7C7"/>
<path d="M151.138 284.138H154.357V281.059H151.138V284.138Z" fill="#C7C7C7"/>
<path d="M146.52 323.55H149.739V320.472H146.52V323.55Z" fill="#C7C7C7"/>
<path d="M146.52 316.986H149.739V313.908H146.52V316.986Z" fill="#C7C7C7"/>
<path d="M146.52 310.415H149.739V307.337H146.52V310.415Z" fill="#C7C7C7"/>
<path d="M146.52 303.851H149.739V300.773H146.52V303.851Z" fill="#C7C7C7"/>
<path d="M146.52 297.273H149.739V294.194H146.52V297.273Z" fill="#C7C7C7"/>
<path d="M146.52 290.702H149.739V287.623H146.52V290.702Z" fill="#C7C7C7"/>
<path d="M146.52 284.138H149.739V281.059H146.52V284.138Z" fill="#C7C7C7"/>
<path d="M311.177 219.617H295.741V237.858H311.177V219.617Z" fill="#DBDBDB"/>
<path d="M320.975 219.617H311.185V238.524H320.975V219.617Z" fill="#C7C7C7"/>
<path d="M321.626 227.676H311.91V238.532H321.626V227.676Z" fill="#DBDBDB"/>
<path d="M327.687 227.676H321.626V238.532H327.687V227.676Z" fill="#C7C7C7"/>
<path d="M314.789 236.674H289.821V327.406H314.789V236.674Z" fill="#EBEBEB"/>
<path d="M300.529 240.574H292.677V243.778H300.529V240.574Z" fill="white"/>
<path d="M310.571 240.574H302.719V243.778H310.571V240.574Z" fill="white"/>
<path d="M300.529 246.02H292.677V249.225H300.529V246.02Z" fill="white"/>
<path d="M310.571 246.02H302.719V249.225H310.571V246.02Z" fill="white"/>
<path d="M300.529 251.467H292.677V254.671H300.529V251.467Z" fill="white"/>
<path d="M310.571 251.467H302.719V254.671H310.571V251.467Z" fill="white"/>
<path d="M300.529 256.913H292.677V260.117H300.529V256.913Z" fill="white"/>
<path d="M310.571 256.913H302.719V260.117H310.571V256.913Z" fill="white"/>
<path d="M300.529 262.36H292.677V265.564H300.529V262.36Z" fill="white"/>
<path d="M310.571 262.36H302.719V265.564H310.571V262.36Z" fill="white"/>
<path d="M300.529 267.806H292.677V271.01H300.529V267.806Z" fill="white"/>
<path d="M310.571 267.806H302.719V271.01H310.571V267.806Z" fill="white"/>
<path d="M300.529 273.252H292.677V276.457H300.529V273.252Z" fill="white"/>
<path d="M310.571 273.252H302.719V276.457H310.571V273.252Z" fill="white"/>
<path d="M300.529 278.699H292.677V281.903H300.529V278.699Z" fill="white"/>
<path d="M310.571 278.699H302.719V281.903H310.571V278.699Z" fill="white"/>
<path d="M300.529 284.145H292.677V287.349H300.529V284.145Z" fill="white"/>
<path d="M310.571 284.145H302.719V287.349H310.571V284.145Z" fill="white"/>
<path d="M300.529 289.592H292.677V292.796H300.529V289.592Z" fill="white"/>
<path d="M310.571 289.592H302.719V292.796H310.571V289.592Z" fill="white"/>
<path d="M300.529 295.038H292.677V298.242H300.529V295.038Z" fill="white"/>
<path d="M310.571 295.038H302.719V298.242H310.571V295.038Z" fill="white"/>
<path d="M300.529 300.484H292.677V303.696H300.529V300.484Z" fill="white"/>
<path d="M310.571 300.484H302.719V303.696H310.571V300.484Z" fill="white"/>
<path d="M300.529 305.931H292.677V309.135H300.529V305.931Z" fill="white"/>
<path d="M310.571 305.931H302.719V309.135H310.571V305.931Z" fill="white"/>
<path d="M300.529 311.377H292.677V314.581H300.529V311.377Z" fill="white"/>
<path d="M310.571 311.377H302.719V314.581H310.571V311.377Z" fill="white"/>
<path d="M335.02 236.674H314.789V327.406H335.02V236.674Z" fill="#C7C7C7"/>
<path d="M326.547 314.581H332.993V311.377H326.547V314.581Z" fill="#EBEBEB"/>
<path d="M318.296 314.581H324.742V311.377H318.296V314.581Z" fill="#EBEBEB"/>
<path d="M326.547 309.135H332.993V305.931H326.547V309.135Z" fill="#EBEBEB"/>
<path d="M318.296 309.135H324.742V305.931H318.296V309.135Z" fill="#EBEBEB"/>
<path d="M326.547 303.689H332.993V300.477H326.547V303.689Z" fill="#EBEBEB"/>
<path d="M318.296 303.689H324.742V300.477H318.296V303.689Z" fill="#EBEBEB"/>
<path d="M326.547 298.242H332.993V295.038H326.547V298.242Z" fill="#EBEBEB"/>
<path d="M318.296 298.242H324.742V295.038H318.296V298.242Z" fill="#EBEBEB"/>
<path d="M326.547 292.796H332.993V289.592H326.547V292.796Z" fill="#EBEBEB"/>
<path d="M318.296 292.796H324.742V289.592H318.296V292.796Z" fill="#EBEBEB"/>
<path d="M326.547 287.349H332.993V284.145H326.547V287.349Z" fill="#EBEBEB"/>
<path d="M318.296 287.349H324.742V284.145H318.296V287.349Z" fill="#EBEBEB"/>
<path d="M326.547 281.903H332.993V278.699H326.547V281.903Z" fill="#EBEBEB"/>
<path d="M318.296 281.903H324.742V278.699H318.296V281.903Z" fill="#EBEBEB"/>
<path d="M326.547 276.457H332.993V273.252H326.547V276.457Z" fill="#EBEBEB"/>
<path d="M318.296 276.457H324.742V273.252H318.296V276.457Z" fill="#EBEBEB"/>
<path d="M326.547 271.01H332.993V267.806H326.547V271.01Z" fill="#EBEBEB"/>
<path d="M318.296 271.01H324.742V267.806H318.296V271.01Z" fill="#EBEBEB"/>
<path d="M326.547 265.564H332.993V262.36H326.547V265.564Z" fill="#EBEBEB"/>
<path d="M318.296 265.564H324.742V262.36H318.296V265.564Z" fill="#EBEBEB"/>
<path d="M326.547 260.117H332.993V256.913H326.547V260.117Z" fill="#EBEBEB"/>
<path d="M318.296 260.117H324.742V256.913H318.296V260.117Z" fill="#EBEBEB"/>
<path d="M326.547 254.671H332.993V251.467H326.547V254.671Z" fill="#EBEBEB"/>
<path d="M318.296 254.671H324.742V251.467H318.296V254.671Z" fill="#EBEBEB"/>
<path d="M326.547 249.225H332.993V246.02H326.547V249.225Z" fill="#EBEBEB"/>
<path d="M318.296 249.225H324.742V246.02H318.296V249.225Z" fill="#EBEBEB"/>
<path d="M326.547 243.786H332.993V240.581H326.547V243.786Z" fill="#EBEBEB"/>
<path d="M318.296 243.786H324.742V240.581H318.296V243.786Z" fill="#EBEBEB"/>
<path d="M209.154 268.287H179.709V327.413H209.154V268.287Z" fill="#C7C7C7"/>
<path d="M189.551 273.4H184.341V277.019H189.551V273.4Z" fill="#DBDBDB"/>
<path d="M189.551 281.141H184.341V284.767H189.551V281.141Z" fill="#DBDBDB"/>
<path d="M189.551 288.874H184.341V292.5H189.551V288.874Z" fill="#DBDBDB"/>
<path d="M189.551 296.614H184.341V300.24H189.551V296.614Z" fill="#DBDBDB"/>
<path d="M189.551 304.347H184.341V307.973H189.551V304.347Z" fill="#DBDBDB"/>
<path d="M189.551 312.088H184.341V315.714H189.551V312.088Z" fill="#DBDBDB"/>
<path d="M189.551 319.821H184.341V323.447H189.551V319.821Z" fill="#DBDBDB"/>
<path d="M197.047 273.4H191.838V277.019H197.047V273.4Z" fill="#DBDBDB"/>
<path d="M197.047 281.141H191.838V284.767H197.047V281.141Z" fill="#DBDBDB"/>
<path d="M197.047 288.874H191.838V292.5H197.047V288.874Z" fill="#DBDBDB"/>
<path d="M197.047 296.614H191.838V300.24H197.047V296.614Z" fill="#DBDBDB"/>
<path d="M197.047 304.347H191.838V307.973H197.047V304.347Z" fill="#DBDBDB"/>
<path d="M197.047 312.088H191.838V315.714H197.047V312.088Z" fill="#DBDBDB"/>
<path d="M197.047 319.821H191.838V323.447H197.047V319.821Z" fill="#DBDBDB"/>
<path d="M204.521 273.4H199.312V277.019H204.521V273.4Z" fill="#DBDBDB"/>
<path d="M204.521 281.141H199.312V284.767H204.521V281.141Z" fill="#DBDBDB"/>
<path d="M204.521 288.874H199.312V292.5H204.521V288.874Z" fill="#DBDBDB"/>
<path d="M204.521 296.614H199.312V300.24H204.521V296.614Z" fill="#DBDBDB"/>
<path d="M204.521 304.347H199.312V307.973H204.521V304.347Z" fill="#DBDBDB"/>
<path d="M204.521 312.088H199.312V315.714H204.521V312.088Z" fill="#DBDBDB"/>
<path d="M204.521 319.821H199.312V323.447H204.521V319.821Z" fill="#DBDBDB"/>
<path d="M209.154 262.123H189.551V268.28H209.154V262.123Z" fill="#DBDBDB"/>
<path d="M209.161 258.312H196.729V262.123H209.161V258.312Z" fill="#EBEBEB"/>
<path d="M229.814 268.287H209.154V327.413H229.814V268.287Z" fill="#A6A6A6"/>
<path d="M223.465 322.869H227.705V319.243H223.465V322.869Z" fill="#C7C7C7"/>
<path d="M223.465 315.129H227.705V311.503H223.465V315.129Z" fill="#C7C7C7"/>
<path d="M223.465 307.396H227.705V303.77H223.465V307.396Z" fill="#C7C7C7"/>
<path d="M223.465 299.656H227.705V296.03H223.465V299.656Z" fill="#C7C7C7"/>
<path d="M223.465 291.923H227.705V288.297H223.465V291.923Z" fill="#C7C7C7"/>
<path d="M223.465 284.182H227.705V280.556H223.465V284.182Z" fill="#C7C7C7"/>
<path d="M223.465 276.449H227.705V272.823H223.465V276.449Z" fill="#C7C7C7"/>
<path d="M217.36 322.869H221.6V319.243H217.36V322.869Z" fill="#C7C7C7"/>
<path d="M217.36 315.129H221.6V311.503H217.36V315.129Z" fill="#C7C7C7"/>
<path d="M217.36 307.396H221.6V303.77H217.36V307.396Z" fill="#C7C7C7"/>
<path d="M217.36 299.656H221.6V296.03H217.36V299.656Z" fill="#C7C7C7"/>
<path d="M217.36 291.923H221.6V288.297H217.36V291.923Z" fill="#C7C7C7"/>
<path d="M217.36 284.182H221.6V280.556H217.36V284.182Z" fill="#C7C7C7"/>
<path d="M217.36 276.449H221.6V272.823H217.36V276.449Z" fill="#C7C7C7"/>
<path d="M211.277 322.869H215.518V319.243H211.277V322.869Z" fill="#C7C7C7"/>
<path d="M211.277 315.129H215.518V311.503H211.277V315.129Z" fill="#C7C7C7"/>
<path d="M211.277 307.396H215.518V303.77H211.277V307.396Z" fill="#C7C7C7"/>
<path d="M211.277 299.656H215.518V296.03H211.277V299.656Z" fill="#C7C7C7"/>
<path d="M211.277 291.923H215.518V288.297H211.277V291.923Z" fill="#C7C7C7"/>
<path d="M211.277 284.182H215.518V280.556H211.277V284.182Z" fill="#C7C7C7"/>
<path d="M211.277 276.449H215.518V272.823H211.277V276.449Z" fill="#C7C7C7"/>
<path d="M226.684 262.123H209.154V268.28H226.684V262.123Z" fill="#C7C7C7"/>
<path d="M218.655 258.312H209.154V262.123H218.655V258.312Z" fill="#DBDBDB"/>
<path d="M340.385 332.105L301.543 332.282L262.693 332.349L185 332.475L107.307 332.349L68.4648 332.282L29.6148 332.105L68.4648 331.92L107.307 331.86L185 331.735L262.693 331.86L301.543 331.927L340.385 332.105Z" fill="#263238"/>
<path d="M340.385 327.406H29.6148V331.912H340.385V327.406Z" fill="#C7C7C7"/>
<path d="M51.4004 327.406C51.6597 328.129 51.7851 328.894 51.7704 329.663C51.785 330.419 51.6596 331.172 51.4004 331.883C50.907 330.421 50.907 328.838 51.4004 327.376V327.406Z" fill="#263238"/>
<path d="M75.6946 327.406C76.1881 328.867 76.1881 330.451 75.6946 331.912C75.4354 331.201 75.31 330.449 75.3246 329.692C75.3064 328.914 75.4318 328.139 75.6946 327.406Z" fill="#263238"/>
<path d="M99.9814 327.406C100.241 328.129 100.366 328.894 100.351 329.663C100.366 330.419 100.241 331.172 99.9814 331.883C99.488 330.421 99.488 328.838 99.9814 327.376V327.406Z" fill="#263238"/>
<path d="M124.276 327.406C124.769 328.867 124.769 330.451 124.276 331.912C124.016 331.201 123.891 330.449 123.906 329.692C123.887 328.914 124.013 328.139 124.276 327.406Z" fill="#263238"/>
<path d="M148.562 327.406C148.822 328.129 148.947 328.894 148.932 329.663C148.947 330.419 148.822 331.172 148.562 331.883C148.069 330.421 148.069 328.838 148.562 327.376V327.406Z" fill="#263238"/>
<path d="M172.857 327.406C173.35 328.867 173.35 330.451 172.857 331.912C172.597 331.201 172.472 330.449 172.487 329.692C172.468 328.914 172.594 328.139 172.857 327.406Z" fill="#263238"/>
<path d="M197.143 327.406C197.403 328.129 197.528 328.894 197.513 329.663C197.528 330.419 197.403 331.172 197.143 331.883C196.65 330.421 196.65 328.838 197.143 327.376V327.406Z" fill="#263238"/>
<path d="M221.438 327.406C221.931 328.867 221.931 330.451 221.438 331.912C221.178 331.201 221.053 330.449 221.068 329.692C221.049 328.914 221.175 328.139 221.438 327.406Z" fill="#263238"/>
<path d="M245.724 327.406C245.984 328.129 246.109 328.894 246.094 329.663C246.109 330.419 245.984 331.172 245.724 331.883C245.231 330.421 245.231 328.838 245.724 327.376V327.406Z" fill="#263238"/>
<path d="M270.019 327.406C270.512 328.867 270.512 330.451 270.019 331.912C269.759 331.201 269.634 330.449 269.649 329.692C269.63 328.914 269.756 328.139 270.019 327.406Z" fill="#263238"/>
<path d="M294.305 327.406C294.565 328.129 294.69 328.894 294.675 329.663C294.69 330.419 294.565 331.172 294.305 331.883C293.812 330.421 293.812 328.838 294.305 327.376V327.406Z" fill="#263238"/>
<path d="M318.6 327.406C319.093 328.867 319.093 330.451 318.6 331.912C318.34 331.201 318.215 330.449 318.23 329.692C318.211 328.914 318.337 328.139 318.6 327.406Z" fill="#263238"/>
<path d="M114.952 113.072H105.413V327.413H114.952V113.072Z" fill="#37474F"/>
<path d="M114.959 327.406H120.132L120.132 113.065H114.959L114.959 327.406Z" fill="#455A64"/>
<path d="M114.952 110.371H104.532V113.065H114.952V110.371Z" fill="#263238"/>
<path d="M114.952 113.072H121.027V110.378H114.952V113.072Z" fill="#37474F"/>
<path d="M114.952 107.988H106.634V110.378H114.952V107.988Z" fill="#37474F"/>
<path d="M119.11 107.988H114.952V110.378H119.11V107.988Z" fill="#455A64"/>
<path d="M118.289 102.608C118.287 103.672 117.971 104.712 117.379 105.595C116.787 106.479 115.946 107.167 114.963 107.573C113.98 107.979 112.898 108.085 111.855 107.877C110.812 107.668 109.854 107.155 109.102 106.402C108.351 105.65 107.839 104.691 107.632 103.648C107.425 102.604 107.532 101.523 107.94 100.541C108.347 99.5579 109.037 98.7181 109.921 98.1273C110.806 97.5365 111.845 97.2212 112.909 97.2212C113.616 97.2212 114.316 97.3606 114.97 97.6314C115.623 97.9022 116.216 98.2992 116.716 98.7995C117.216 99.2999 117.612 99.8938 117.882 100.547C118.151 101.201 118.29 101.901 118.289 102.608Z" fill="#37474F"/>
<path d="M73.9407 131.602V154.542H49.2173V131.816C49.2164 130.22 49.5299 128.639 50.1401 127.164C50.7503 125.689 51.6452 124.349 52.7736 123.219C53.902 122.09 55.2418 121.195 56.7165 120.584C58.1912 119.973 59.7719 119.658 61.3681 119.658H61.9971C65.1648 119.658 68.2027 120.916 70.4425 123.156C72.6824 125.396 73.9407 128.434 73.9407 131.602Z" fill="#045BA2"/>
<path d="M112.909 129.737V154.564H73.9408V131.624C73.9437 130.053 73.6369 128.498 73.038 127.046C72.4391 125.595 71.5598 124.275 70.4505 123.164C69.3411 122.053 68.0235 121.171 66.5729 120.569C65.1224 119.968 63.5675 119.658 61.9972 119.658H102.86C105.528 119.666 108.084 120.731 109.968 122.62C111.851 124.51 112.909 127.069 112.909 129.737Z" fill="#045BA2"/>
<path opacity="0.1" d="M112.909 129.737V154.564H73.9408V131.624C73.9437 130.053 73.6369 128.498 73.038 127.046C72.4391 125.595 71.5598 124.275 70.4505 123.164C69.3411 122.053 68.0235 121.171 66.5729 120.569C65.1224 119.968 63.5675 119.658 61.9972 119.658H102.86C105.528 119.666 108.084 120.731 109.968 122.62C111.851 124.51 112.909 127.069 112.909 129.737Z" fill="#020100"/>
<path opacity="0.1" d="M80.7044 131.158V154.564H79.1134V131.624C79.1163 130.054 78.8098 128.499 78.2113 127.048C77.6129 125.597 76.7342 124.278 75.6257 123.167C74.5171 122.055 73.2003 121.173 71.7507 120.571C70.301 119.969 68.7469 119.659 67.1772 119.658H69.2048C72.2547 119.658 75.1796 120.87 77.3362 123.026C79.4928 125.183 80.7044 128.108 80.7044 131.158Z" fill="#020100"/>
<path opacity="0.1" d="M109.291 131.158V154.564H107.7V131.624C107.7 128.457 106.442 125.421 104.204 123.181C101.966 120.941 98.9297 119.682 95.7634 119.68H97.791C100.837 119.68 103.759 120.889 105.915 123.04C108.071 125.192 109.285 128.112 109.291 131.158Z" fill="#020100"/>
<g opacity="0.1">
<path d="M89.3549 148.407V144.707L88.0155 147.401H87.2755L85.9361 144.707V148.407H84.5005V142.221H86.0545L87.6603 145.447L89.2661 142.221H90.8127V148.407H89.3549Z" fill="#020100"/>
<path d="M93.647 142.221H94.942L97.162 148.407H95.682L95.201 147.016H93.277L92.8034 148.407H91.3234L93.647 142.221ZM95.016 146.032L94.276 143.812L93.536 146.032H95.016Z" fill="#020100"/>
<path d="M97.8057 148.407V142.221H99.2339V148.407H97.8057Z" fill="#020100"/>
<path d="M100.418 148.407V142.221H101.846V147.149H104.843V148.407H100.418Z" fill="#020100"/>
</g>
<path opacity="0.3" d="M72.6753 132.164V152.78H50.4753V132.356C50.4753 130.921 50.7586 129.499 51.309 128.173C51.8594 126.846 52.666 125.642 53.6827 124.628C54.6994 123.614 55.9062 122.811 57.2339 122.264C58.5615 121.717 59.9841 121.437 61.4199 121.441H61.9823C64.821 121.449 67.5408 122.582 69.5452 124.592C71.5497 126.602 72.6754 129.325 72.6753 132.164Z" fill="#020100"/>
<path d="M46.472 156.88L49.2174 154.586H73.9408L71.4544 156.665C63.455 163.377 52.5104 168.824 45.7986 168.824H44.1854C37.592 168.801 36.6374 164.45 46.472 156.88Z" fill="#37474F"/>
<path d="M73.9334 154.564L71.4544 156.643C63.455 163.355 52.5104 168.801 45.7986 168.801H44.0448C37.5772 168.735 36.704 164.361 46.472 156.858L49.21 154.564H73.9334Z" fill="#37474F"/>
<path d="M72.1056 154.564L69.6266 156.643C61.6568 163.303 50.764 168.757 44.0448 168.801C37.5772 168.735 36.704 164.361 46.472 156.858L49.21 154.564H72.1056Z" fill="#455A64"/>
<path d="M109.083 164.746V171.058L95.9631 154.564H100.988L109.083 164.746Z" fill="#455A64"/>
<path d="M109.083 171.058H107.233L94.1132 154.564H95.9706L109.083 171.058Z" fill="#37474F"/>
<path d="M88.8 108.98V114.826H83.4498V136.782C83.4498 137.272 83.2548 137.743 82.9079 138.09C82.561 138.437 82.0904 138.632 81.5998 138.632C81.1091 138.632 80.6386 138.437 80.2916 138.09C79.9447 137.743 79.7498 137.272 79.7498 136.782V107.515L83.4498 108.114L88.8 108.98Z" fill="#455A64"/>
<path d="M88.8 108.98V114.826H83.4498V136.782C83.4482 137.207 83.3001 137.618 83.0306 137.947C82.761 138.276 82.3864 138.502 81.9698 138.587C81.8437 138.617 81.7145 138.632 81.585 138.632C81.4817 138.643 81.3775 138.643 81.2742 138.632C80.8949 138.573 80.5446 138.394 80.2752 138.121C79.9298 137.772 79.7357 137.302 79.735 136.811V107.515L83.435 108.114L88.8 108.98Z" fill="#455A64"/>
<path d="M81.5776 138.632H80.1346C79.7301 138.636 79.3394 138.485 79.0433 138.21C78.7471 137.934 78.5682 137.555 78.5436 137.152V107.515H79.7276V136.782C79.7283 137.272 79.9224 137.743 80.2678 138.091C80.6313 138.414 81.0927 138.604 81.5776 138.632Z" fill="#37474F"/>
<path d="M72.6754 132.164V146.661L68.9754 145.114L66.8146 144.204L65.86 143.804L65.2384 143.538L64.5798 143.264L64.38 143.183L64.121 143.072L58.6894 140.778L59.8364 138.047L60.0584 137.529L61.0426 135.205L61.4348 134.258L61.5976 133.888L62.2784 132.26L63.0184 130.425L65.9784 123.351L69.856 124.986C71.0037 126.251 71.8288 127.774 72.261 129.426C72.517 130.317 72.6563 131.237 72.6754 132.164Z" fill="#EBEBEB"/>
<path d="M72.6753 135.938V137.551L72.5865 137.366V137.285L72.5199 137.144C72.4924 137.099 72.4677 137.052 72.4459 137.004L71.5653 135.191C71.5653 135.117 71.4913 135.043 71.4543 134.961L70.6773 133.333C70.5145 133.008 70.3591 132.682 70.2037 132.349L70.1593 132.245L68.9827 129.766C68.6941 129.137 68.3981 128.508 68.1095 127.872C67.4287 126.392 66.7257 124.868 66.0671 123.336C66.8663 124.749 67.6137 126.185 68.3907 127.613C68.7607 128.353 69.1307 129.012 69.5007 129.715L70.6699 131.935L70.8253 132.238L71.3211 133.2L71.9279 134.391C71.9279 134.451 71.9945 134.51 72.0241 134.569L72.6753 135.938Z" fill="#DBDBDB"/>
<path d="M72.6754 137.27V137.337H72.5866L72.3646 137.403C71.4248 137.692 70.485 137.951 69.5378 138.195L69.227 138.269L68.5388 138.439H68.4574L67.6434 138.632L66.0524 138.987C64.9276 139.224 63.8324 139.446 62.6706 139.638H62.5374L61.8492 139.749C60.8946 139.912 59.94 140.045 58.978 140.149C59.8068 139.875 60.6356 139.638 61.4718 139.409L62.2118 139.216L62.4412 139.15C63.5956 138.854 64.7648 138.595 65.9266 138.336L66.97 138.114C67.2808 138.062 67.5842 137.995 67.895 137.936C68.2058 137.877 68.635 137.788 69.0198 137.729L69.449 137.655L69.6858 137.61C70.5442 137.462 71.41 137.329 72.2906 137.226H72.557L72.6754 137.27Z" fill="#DBDBDB"/>
<path d="M72.6828 133.6H53.5316V152.514H72.6828V133.6Z" fill="white"/>
<path d="M72.6754 142.332V143.257L72.4978 143.412L72.1574 143.715C72.1161 143.748 72.0766 143.782 72.039 143.819L71.9354 143.915L71.8614 143.982L68.9976 146.468L68.6054 146.801L68.4352 146.942L68.265 146.801L66.8294 145.551L66.0894 144.936C65.9414 144.803 65.786 144.677 65.638 144.537C65.5985 144.513 65.5634 144.483 65.5344 144.448L65.0164 144.004L64.9498 143.945L64.8314 143.841L64.713 143.745C63.7263 142.911 62.7692 142.068 61.8418 141.214L61.457 140.874L60.8428 140.326L59.8216 139.416C59.0816 138.78 58.3934 138.136 57.6904 137.485L57.4388 137.263L57.165 137.018C55.9514 135.886 54.723 134.798 53.5242 133.629C54.8044 134.613 56.0624 135.657 57.3278 136.663C57.424 136.745 57.5276 136.819 57.6238 136.907L57.942 137.166L60.0436 138.891L61.1092 139.771L62.197 140.681L62.6632 141.074C63.5413 141.809 64.417 142.549 65.2902 143.294L65.4826 143.456L65.9932 143.893L66.2226 144.085L66.6518 144.455L68.4204 145.935C69.4564 145.047 70.4998 144.152 71.5432 143.271L71.854 143.005C72.0538 142.835 72.2462 142.665 72.4534 142.502L72.6754 142.332Z" fill="#DBDBDB"/>
<path d="M65.3494 143.693L64.8758 144.093C64.1358 144.722 63.3958 145.329 62.5818 145.913C61.6346 146.653 60.6652 147.334 59.6884 148.022C58.7116 148.71 57.72 149.369 56.7284 150.013C55.7368 150.657 54.7008 151.293 53.65 151.87C54.5528 151.078 55.5 150.338 56.4472 149.613C57.3944 148.888 58.3712 148.192 59.3406 147.504C60.31 146.816 61.3164 146.15 62.3006 145.506C63.0998 144.996 63.9138 144.485 64.75 144.026L65.3346 143.701L65.3494 143.693Z" fill="#DBDBDB"/>
<path d="M72.6754 144.352V144.663L72.039 144.13L71.8614 143.982L71.5654 143.73H71.6172L71.9724 143.93L72.1944 144.063L72.6754 144.352Z" fill="#DBDBDB"/>
<path d="M140.519 247.9C140.519 247.9 117.061 267.784 117.038 267.791C112.532 271.573 108.647 274.969 106.804 276.908C106.327 277.311 105.947 277.817 105.694 278.388C105.694 278.388 105.694 278.425 105.694 278.44C105.909 280.541 135.057 317.438 136.508 318.4C137.958 319.362 140.763 315.292 140.77 312.953C140.778 310.615 135.938 291.493 135.938 291.493L159.196 271.395L140.519 247.9Z" fill="#EB9481"/>
<path d="M121.856 263.699C121.856 263.699 117.061 267.769 117.038 267.776C112.532 271.558 108.647 274.954 106.804 276.893C106.377 277.341 106.004 277.838 105.694 278.373C105.694 278.373 105.694 278.41 105.694 278.425C105.909 280.527 135.057 317.423 136.508 318.385C137.958 319.347 140.763 315.277 140.77 312.939C140.778 310.6 135.938 291.479 135.938 291.479L140.881 287.401L121.856 263.699Z" fill="#EBEBEB"/>
<path d="M136.471 318.415C134.991 317.475 105.872 280.578 105.657 278.455C105.561 277.648 110.689 273.09 117.038 267.762L117.246 267.591L136.308 291.183L135.901 291.493C135.901 291.493 140.741 310.608 140.733 312.953C140.726 315.299 137.914 319.369 136.471 318.415Z" fill="#045BA2"/>
<path d="M137.566 316.868C132.808 310.534 113.013 285.411 107.825 279.505C107.781 279.461 107.744 279.505 107.788 279.505C112.369 285.892 132.364 310.852 137.47 316.92C137.573 317.075 137.64 317.001 137.566 316.868Z" fill="#263238"/>
<path d="M137.411 293.573C135.931 290.768 133.193 288.067 129.974 287.579C129.848 287.579 129.818 287.734 129.907 287.793C132.51 289.537 134.919 291.554 137.092 293.81C137.126 293.845 137.172 293.867 137.22 293.871C137.269 293.875 137.317 293.861 137.356 293.832C137.395 293.803 137.423 293.76 137.433 293.713C137.443 293.665 137.435 293.615 137.411 293.573Z" fill="#263238"/>
<path d="M137.736 296.178C136.256 293.373 133.518 290.679 130.336 290.184C130.21 290.184 130.188 290.339 130.277 290.398C132.877 292.142 135.284 294.159 137.455 296.414C137.49 296.432 137.529 296.439 137.568 296.435C137.607 296.43 137.644 296.414 137.674 296.389C137.704 296.364 137.726 296.33 137.737 296.293C137.748 296.255 137.748 296.215 137.736 296.178Z" fill="#263238"/>
<path d="M138.069 298.79C136.589 295.978 133.851 293.284 130.632 292.788C130.506 292.788 130.484 292.951 130.573 293.01C133.173 294.751 135.58 296.766 137.751 299.019C137.785 299.051 137.829 299.07 137.875 299.073C137.921 299.076 137.967 299.063 138.005 299.036C138.042 299.009 138.069 298.969 138.081 298.924C138.093 298.879 138.089 298.832 138.069 298.79Z" fill="#263238"/>
<path d="M152.914 224.553C151.434 232.959 117.482 267.155 117.482 267.155L142.332 294.535C142.332 294.535 190.432 244.215 187.472 225.774C184.859 209.746 159.278 145.647 159.278 145.647L131.505 146.298C131.505 146.298 154.386 216.287 152.914 224.553Z" fill="#37474F"/>
<path d="M144.929 287.816C141.621 283.886 142.628 284.967 139.275 281.074C137.633 279.172 126.843 266.674 125.001 265.164C124.956 265.164 124.89 265.164 124.919 265.238C126.177 267.258 137.189 279.565 138.861 281.437C142.287 285.263 141.347 284.13 144.781 287.912C144.787 287.922 144.795 287.93 144.805 287.936C144.815 287.943 144.825 287.948 144.837 287.95C144.848 287.952 144.86 287.953 144.871 287.95C144.883 287.948 144.893 287.944 144.903 287.938C144.913 287.931 144.921 287.923 144.928 287.914C144.934 287.904 144.939 287.893 144.941 287.882C144.944 287.871 144.944 287.859 144.942 287.848C144.94 287.836 144.935 287.825 144.929 287.816Z" fill="#263238"/>
<path d="M157.62 221.689C157.176 219.61 156.673 217.538 156.184 215.473C155.198 211.25 154.144 207.037 153.025 202.834C150.824 194.502 148.454 186.221 145.913 177.992C143.353 169.741 140.659 161.498 137.588 153.417C137.203 152.418 136.811 151.426 136.426 150.457C136.421 150.44 136.408 150.426 136.392 150.419C136.376 150.411 136.358 150.41 136.341 150.416C136.325 150.422 136.311 150.434 136.303 150.45C136.296 150.466 136.295 150.485 136.301 150.501C138.987 158.604 141.754 166.685 144.285 174.84C146.816 182.995 149.154 191.12 151.382 199.341C152.499 203.463 153.543 207.6 154.571 211.744C155.065 213.781 155.558 215.821 156.051 217.863C156.642 219.93 157.08 222.037 157.361 224.168C157.484 226.193 156.966 228.204 155.881 229.918C154.882 231.642 153.661 233.278 152.551 234.906C150.25 238.184 128.235 263.899 127.524 264.594C127.465 264.654 127.524 264.735 127.613 264.676C130.573 261.886 149.28 240.678 151.641 237.407C152.803 235.794 153.942 234.151 155.06 232.501C156.176 230.996 157.066 229.335 157.701 227.572C158.187 225.638 158.159 223.61 157.62 221.689Z" fill="#263238"/>
<path d="M153.565 145.78L152.521 219.432C149.399 201.051 131.505 146.298 131.505 146.298L153.565 145.78Z" fill="#263238"/>
<path d="M145.736 282.258C145.736 282.258 152.396 311.311 152.396 311.325C152.61 317.245 152.906 322.351 153.313 325.001C153.31 325.015 153.31 325.03 153.313 325.045C153.338 325.675 153.508 326.29 153.809 326.843L153.846 326.88C155.637 328.005 202.686 327.62 204.292 327.073C205.898 326.525 204.447 321.796 202.612 320.361C200.777 318.925 182.706 311.007 182.706 311.007L175.735 281.977L145.736 282.258Z" fill="#EB9481"/>
<path d="M204.314 327.08C202.679 327.65 155.659 328.02 153.868 326.895L153.831 326.858C153.525 326.307 153.355 325.69 153.335 325.06C153.332 325.053 153.33 325.045 153.33 325.038C153.33 325.03 153.332 325.022 153.335 325.015C152.936 322.366 152.647 317.223 152.425 311.348L151.271 306.286L181.433 305.583L182.736 311.015C182.736 311.015 200.799 318.933 202.649 320.376C204.499 321.819 205.957 326.51 204.314 327.08Z" fill="#EBEBEB"/>
<path d="M204.314 327.08C202.679 327.642 155.666 328.012 153.868 326.888C153.173 326.473 152.721 319.628 152.388 311.348C152.388 311.266 152.388 311.177 152.388 311.089L182.728 310.519V311.029C182.728 311.029 200.784 318.94 202.634 320.383C204.484 321.826 205.949 326.51 204.314 327.08Z" fill="#045BA2"/>
<path d="M203.766 325.252C195.841 325.119 163.858 325.334 156.014 325.8C155.948 325.8 155.948 325.852 156.014 325.852C163.866 326.155 195.848 325.681 203.766 325.385C203.937 325.378 203.937 325.252 203.766 325.252Z" fill="#263238"/>
<path d="M185.274 311.081C182.151 310.519 178.34 311.029 175.979 313.301C175.883 313.39 175.979 313.516 176.113 313.486C179.083 312.496 182.152 311.832 185.266 311.503C185.294 311.503 185.322 311.498 185.347 311.488C185.373 311.478 185.397 311.463 185.417 311.444C185.437 311.425 185.452 311.402 185.464 311.376C185.475 311.351 185.481 311.323 185.481 311.296C185.481 311.268 185.477 311.241 185.466 311.215C185.456 311.189 185.441 311.166 185.422 311.146C185.403 311.126 185.38 311.11 185.354 311.099C185.329 311.088 185.301 311.082 185.274 311.081Z" fill="#263238"/>
<path d="M187.538 312.421C184.415 311.858 180.604 312.369 178.236 314.641C178.148 314.729 178.236 314.855 178.37 314.826C181.343 313.837 184.415 313.172 187.531 312.842C187.559 312.843 187.586 312.838 187.612 312.828C187.638 312.818 187.661 312.802 187.681 312.783C187.701 312.764 187.717 312.741 187.728 312.716C187.739 312.69 187.745 312.663 187.745 312.635C187.746 312.608 187.741 312.58 187.731 312.554C187.721 312.528 187.706 312.505 187.686 312.485C187.667 312.465 187.644 312.449 187.619 312.438C187.593 312.427 187.566 312.421 187.538 312.421Z" fill="#263238"/>
<path d="M189.795 313.76C186.672 313.198 182.861 313.708 180.501 315.98C180.405 316.069 180.501 316.195 180.634 316.165C183.605 315.176 186.674 314.511 189.788 314.182C189.844 314.183 189.898 314.161 189.938 314.123C189.978 314.084 190.001 314.031 190.002 313.975C190.003 313.919 189.982 313.865 189.943 313.824C189.904 313.784 189.851 313.761 189.795 313.76Z" fill="#263238"/>
<path d="M156.591 145.699C156.591 146.283 154.334 170.119 153.58 170.792C152.825 171.465 147.911 174.914 146.453 175.854C146.453 175.854 160.735 217.012 164.583 230.754C170.17 250.682 183.823 310.534 183.823 310.534L151.152 311.274C151.152 311.274 139.882 254.257 135.094 235.276C130.995 218.996 115.588 170.252 115.588 170.252C113.532 162.48 113.74 154.282 116.187 146.624C116.187 146.624 156.599 145.676 156.591 145.699Z" fill="#37474F"/>
<path d="M182.506 304.207C177.371 304.295 178.843 304.207 173.708 304.347C171.199 304.421 154.69 304.917 152.359 305.398C152.307 305.398 152.314 305.494 152.359 305.502C154.719 305.798 171.214 305.013 173.722 304.895C178.851 304.643 177.378 304.658 182.506 304.355C182.526 304.355 182.545 304.347 182.559 304.333C182.572 304.319 182.58 304.3 182.58 304.281C182.58 304.261 182.572 304.242 182.559 304.228C182.545 304.214 182.526 304.207 182.506 304.207Z" fill="#263238"/>
<path d="M155 169.556C151.864 171.375 148.893 173.465 146.12 175.802C146.108 175.81 146.098 175.821 146.09 175.833C146.082 175.845 146.076 175.859 146.073 175.873C146.071 175.888 146.071 175.903 146.074 175.917C146.077 175.931 146.083 175.945 146.091 175.957C146.099 175.969 146.11 175.98 146.122 175.988C146.134 175.996 146.148 176.001 146.162 176.004C146.177 176.007 146.192 176.007 146.206 176.004C146.22 176.001 146.234 175.995 146.246 175.987C149.251 173.996 152.336 172.065 155.237 169.919C155.272 169.883 155.294 169.836 155.299 169.785C155.304 169.735 155.291 169.685 155.264 169.643C155.236 169.601 155.195 169.569 155.147 169.553C155.099 169.538 155.048 169.539 155 169.556Z" fill="#263238"/>
<path d="M151.974 147.045C151.974 146.934 151.744 146.949 151.767 147.045C152.423 150.692 152.894 154.37 153.18 158.064C153.328 159.766 153.639 169.29 150.612 169.164C150.102 169.164 149.769 168.705 149.554 167.987C149.396 167.024 149.356 166.045 149.436 165.072C149.436 163.066 149.317 161.076 149.132 159.078C148.819 155.362 148.12 151.689 147.045 148.118C147.037 148.097 147.021 148.08 147 148.069C146.98 148.058 146.956 148.056 146.934 148.061C146.911 148.066 146.892 148.08 146.878 148.098C146.865 148.117 146.858 148.14 146.86 148.163C147.857 153.215 148.468 158.336 148.688 163.481C148.762 165.96 148.192 169.815 150.79 169.734C153.387 169.652 154.001 163.266 154.016 161.542C153.969 156.642 153.282 151.768 151.974 147.045Z" fill="#263238"/>
<path d="M150.723 169.371C150.579 170.045 150.476 170.727 150.412 171.414C150.309 171.954 150.309 172.509 150.412 173.049C150.412 173.145 150.575 173.13 150.62 173.049C150.839 172.521 150.974 171.961 151.019 171.391C151.138 170.755 151.263 170.126 151.36 169.49C151.356 169.415 151.327 169.344 151.277 169.288C151.228 169.232 151.161 169.194 151.088 169.18C151.015 169.166 150.939 169.178 150.872 169.212C150.806 169.247 150.754 169.303 150.723 169.371Z" fill="#263238"/>
<path d="M146.801 287.031C146.698 286.291 146.579 285.551 146.453 284.774C146.217 283.331 145.935 281.896 145.713 280.453C145.195 277.559 144.633 274.673 144.048 271.795C142.887 266.052 141.569 260.325 140.193 254.634C139.409 251.415 138.513 248.233 137.573 245.058C137.507 244.836 137.196 244.955 137.24 245.169C137.832 248.078 138.41 250.993 139.076 253.894C139.742 256.795 140.4 259.673 141.051 262.567C142.324 268.287 143.523 274.029 144.788 279.75C145.151 281.363 145.477 282.983 145.832 284.597C146.009 285.406 146.194 286.212 146.387 287.016C146.579 287.816 146.846 288.6 147.001 289.407C147.001 289.481 147.127 289.444 147.112 289.407C146.942 288.6 146.912 287.808 146.801 287.031Z" fill="#263238"/>
<path d="M168.313 243.097C167.099 237.703 165.508 232.39 163.91 227.099C160.691 216.45 156.947 205.964 153.217 195.486L149.991 186.428C149.45 184.948 146.794 176.771 146.476 176.002C146.47 175.985 146.457 175.971 146.441 175.964C146.426 175.956 146.407 175.955 146.391 175.961C146.374 175.967 146.36 175.979 146.353 175.995C146.345 176.011 146.344 176.029 146.35 176.046C147.09 178.821 148.185 182.869 149.058 185.622C149.931 188.374 150.871 191.024 151.789 193.762C153.58 199.067 155.4 204.366 157.146 209.694C160.595 220.217 164.021 230.739 166.877 241.447C167.669 244.444 168.468 247.441 169.201 250.46C169.934 253.48 170.577 256.499 171.28 259.518C171.28 259.599 171.436 259.57 171.428 259.518C170.666 253.996 169.626 248.515 168.313 243.097Z" fill="#263238"/>
<path d="M148.666 271.928C146.631 261.627 144.226 251.393 141.606 241.233C138.987 231.072 136.064 220.868 132.882 210.811C129.7 200.755 126.222 190.794 122.477 180.923C120.608 176.282 119.015 171.535 117.704 166.707C116.52 161.897 115.847 156.688 116.861 151.789C117.113 150.546 117.46 149.324 117.897 148.133C117.897 148.052 117.801 147.985 117.771 148.067C114.071 157.317 116.839 167.27 120.043 176.187C121.797 181.093 123.654 185.962 125.386 190.876C127.171 195.917 128.881 200.984 130.514 206.075C133.77 216.169 136.804 226.322 139.549 236.563C142.295 246.805 144.774 257.106 146.949 267.473C149.125 277.84 151.071 288.326 152.995 298.782C153.247 300.144 153.454 301.513 153.661 302.882C153.661 302.956 153.794 302.956 153.787 302.882C152.314 292.544 150.701 282.214 148.666 271.928Z" fill="#263238"/>
<path d="M142.08 103.385C145.462 115.877 153.402 135.205 160.018 134.969C166.049 134.732 179.258 123.713 184.83 120.072C190.402 116.432 177.43 102.904 174.233 105.221C169.297 108.802 161.942 115.166 160.661 114.789C159.07 114.315 156.961 110.482 147.697 99.2488C143.863 94.6312 140.6 98.0648 142.08 103.385Z" fill="#EB9481"/>
<path d="M180.138 99.752C182.773 98.7456 185.718 97.384 188.678 97.3692C191.638 97.3544 194.176 101.202 194.206 102.32C194.235 103.437 193.273 110.46 190.321 110.504C187.368 110.549 189.026 105.176 188.9 104.584C188.774 103.992 188.641 103.193 188.086 103.267C187.531 103.341 177.881 108.188 177.881 108.188L180.138 99.752Z" fill="#EB9481"/>
<path d="M180.331 100.152C180.501 100.152 188.345 96.8438 191.305 96.829C194.265 96.8142 196.84 100.64 196.84 101.772C196.84 102.904 195.908 109.912 192.955 109.957C190.002 110.001 191.66 104.629 191.534 104.037C191.408 103.445 191.275 102.638 190.72 102.712C190.165 102.786 180.516 107.64 180.516 107.64L180.331 100.152Z" fill="#EB9481"/>
<path d="M191.934 109.609C191.611 109.084 191.427 108.485 191.401 107.87C191.327 107.241 191.349 106.605 191.468 105.983C191.618 105.447 191.724 104.9 191.786 104.347C191.769 103.801 191.617 103.266 191.342 102.793C191.105 102.386 190.668 102.534 190.298 102.675C189.755 102.893 189.224 103.14 188.707 103.415L187.05 104.34C186.465 104.633 185.899 104.962 185.355 105.324C185.344 105.329 185.336 105.338 185.332 105.349C185.328 105.36 185.328 105.373 185.333 105.383C185.338 105.394 185.347 105.403 185.358 105.407C185.369 105.411 185.381 105.411 185.392 105.406C185.898 105.185 186.392 104.938 186.872 104.666L188.545 103.852C189.07 103.607 189.581 103.326 190.113 103.112C190.298 103.03 190.668 102.816 190.853 102.86C191.038 102.904 191.201 103.459 191.26 103.637C191.394 104.165 191.371 104.72 191.194 105.235C191.05 105.768 190.961 106.313 190.927 106.863C190.886 107.382 190.939 107.903 191.083 108.403C191.279 108.847 191.527 109.267 191.823 109.653C191.882 109.72 191.978 109.653 191.934 109.609Z" fill="#263238"/>
<path d="M171.14 108.129C171.14 108.129 179.154 100.47 180.826 98.9528C184.179 95.8966 198.446 89.6732 200.451 89.4142C202.457 89.1552 203.271 93.2548 193.591 97.7614C188.493 100.129 187.671 103.104 187.782 104.74C187.893 106.375 189.551 109.387 192.296 109.246C195.042 109.106 196.736 105.05 199.26 104.547C201.783 104.044 200.214 108.713 198.52 111.429C196.707 114.051 194.187 116.104 191.253 117.349C188.892 118.296 181.633 121.641 181.633 121.641L171.14 108.129Z" fill="#EB9481"/>
<path d="M195.671 107.233C194.65 108.062 193.503 109.128 192.141 109.209C190.779 109.291 189.795 108.403 189.114 107.27C188.367 106.159 188.076 104.802 188.3 103.482C188.594 102.287 189.223 101.201 190.113 100.351C191.218 99.3234 192.464 98.4587 193.813 97.7836C193.873 97.7836 193.813 97.6652 193.754 97.6948C192.504 98.2942 188.574 99.9962 187.901 103.489C187.682 104.838 187.987 106.22 188.752 107.352C189.388 108.432 190.298 109.468 191.638 109.572C193.266 109.668 194.635 108.314 195.782 107.3C195.797 107.226 195.723 107.189 195.671 107.233Z" fill="#263238"/>
<path d="M171.118 107.085L183.809 125.8C183.809 125.8 164.628 137.159 159.1 135.531C153.572 133.903 144.885 118.333 141.14 104.584C137.396 90.835 146.017 95.9262 149.413 100.144C152.81 104.362 160.188 114.056 160.58 113.916C160.972 113.775 171.118 107.085 171.118 107.085Z" fill="#045BA2"/>
<path d="M178.296 128.871C177.104 129.507 175.794 130.181 174.418 130.854L163.355 112.147C164.465 111.407 165.753 110.593 166.959 109.809C170.444 115.655 174.677 122.766 178.296 128.871Z" fill="#EBEBEB"/>
<path d="M172.923 131.579L171.65 132.164L160.758 113.79C160.994 113.657 161.394 113.405 161.912 113.05C165.338 118.822 169.416 125.674 172.923 131.579Z" fill="#EBEBEB"/>
<path d="M170.267 132.778C165.878 134.687 161.564 136.101 159.285 135.583L159.085 135.531C153.55 133.903 144.877 118.341 141.125 104.584C140.567 102.744 140.256 100.838 140.2 98.9158C140.2 98.8418 140.2 98.7826 140.2 98.7086C140.2 98.6346 140.2 98.494 140.2 98.383C140.197 98.3387 140.197 98.2941 140.2 98.2498C140.192 98.1513 140.192 98.0523 140.2 97.9538L170.267 132.778Z" fill="#263238"/>
<path d="M176.927 124.105C176.527 123.439 176.113 122.773 175.706 122.115C174.884 120.79 169.956 112.939 168.024 110.563C167.973 110.497 167.876 110.563 167.906 110.645C169.282 113.398 174.381 121.101 175.232 122.374C175.669 123.018 176.098 123.669 176.542 124.313C176.986 124.956 177.504 125.556 177.948 126.207C177.992 126.266 178.096 126.207 178.059 126.148C177.652 125.482 177.326 124.771 176.927 124.105Z" fill="#263238"/>
<path d="M113.442 158.708C113.56 158.834 162.511 152.995 162.941 152.47C163.547 151.73 151.034 102.949 145.743 96.5108C144.611 95.1344 141.022 94.8606 137.995 95.3416C137.206 95.4578 136.428 95.6435 135.672 95.8966H135.598C134.985 96.0947 134.412 96.3977 133.903 96.792C125.674 103.829 119.347 127.665 117.926 134.813C115.558 146.609 113.02 158.256 113.442 158.708Z" fill="#045BA2"/>
<path d="M161.934 147.179C150.094 148.71 124.409 152.04 114.197 153.261C114.552 151.448 114.981 149.288 115.47 146.905L160.484 141.273C161.054 143.493 161.549 145.506 161.934 147.179Z" fill="#EBEBEB"/>
<path d="M159.877 138.868C148.185 140.385 126.577 143.175 115.965 144.47L116.38 142.443L159.396 137.018C159.559 137.64 159.722 138.262 159.877 138.868Z" fill="#EBEBEB"/>
<path d="M130.573 109.587C133.052 122.352 144.367 146.061 151.426 148.155C159.603 150.575 187.553 140.918 192.985 136.737C195.145 135.08 183.091 121.197 180.405 122.233C169.038 126.718 158.945 129.123 157.428 128.153C155.119 126.673 145.588 113.627 139.357 105.546C131.535 95.3934 129.456 103.866 130.573 109.587Z" fill="#EB9481"/>
<path d="M192.267 137.144C193.51 136.663 201.99 130.203 204.462 127.206C207.149 124.1 209.308 120.576 210.856 116.772C213.275 110.748 214.378 106.36 213.719 104.421C212.979 102.164 212.735 101.802 207 111.821C203.759 117.497 200.555 118.2 197.765 118.208C190.896 118.24 184.136 119.92 178.051 123.106C178.051 123.106 187.494 138.972 192.267 137.144Z" fill="#EB9481"/>
<path d="M217.826 96.94L203.367 116.084C203.16 116.347 202.882 116.545 202.566 116.657C202.251 116.768 201.91 116.787 201.583 116.713L191.112 113.501C190.978 113.474 190.853 113.409 190.753 113.314C190.653 113.22 190.581 113.099 190.546 112.966C190.511 112.833 190.513 112.693 190.553 112.562C190.593 112.43 190.669 112.312 190.772 112.221L205.232 93.0772C205.438 92.8129 205.715 92.6132 206.031 92.5017C206.347 92.3903 206.689 92.3717 207.015 92.4482L217.486 95.6598C217.621 95.6875 217.745 95.7522 217.845 95.8466C217.945 95.9411 218.017 96.0616 218.052 96.1946C218.088 96.3275 218.085 96.4677 218.045 96.5994C218.006 96.7311 217.93 96.8491 217.826 96.94Z" fill="#37474F"/>
<path d="M216.546 95.3416L206.075 92.13C205.748 92.0561 205.407 92.0768 205.091 92.1894C204.775 92.3021 204.498 92.5022 204.292 92.7664L189.84 111.91C189.727 111.999 189.643 112.119 189.598 112.255C189.553 112.391 189.547 112.537 189.584 112.676C189.62 112.815 189.695 112.94 189.801 113.036C189.907 113.133 190.039 113.197 190.18 113.22L200.651 116.432C200.977 116.504 201.318 116.484 201.633 116.373C201.948 116.262 202.226 116.064 202.434 115.803L216.887 96.6588C217.001 96.5703 217.087 96.45 217.134 96.313C217.181 96.176 217.187 96.0282 217.151 95.8879C217.115 95.7477 217.038 95.6212 216.931 95.5241C216.823 95.4269 216.689 95.3635 216.546 95.3416ZM202.212 114.974C202.025 115.222 201.771 115.411 201.481 115.521C201.19 115.631 200.874 115.657 200.57 115.595L191.209 112.724C190.683 112.561 190.565 111.984 190.95 111.518L204.41 93.6914C205.15 92.6702 205.646 92.7442 206.171 92.907L208.044 93.4842C208.155 93.4842 208.162 93.6544 208.044 93.7876L207.999 93.8468C207.755 94.1724 207.955 94.2316 208.199 94.3056L212.535 95.6376C212.65 95.7022 212.786 95.719 212.914 95.6844C213.041 95.6498 213.15 95.5665 213.216 95.4526L213.261 95.3934C213.301 95.3293 213.358 95.2779 213.426 95.2452C213.494 95.2125 213.57 95.1997 213.645 95.2084L215.525 95.7856C216.043 95.941 216.369 96.2074 215.658 97.1472L202.212 114.974Z" fill="#263238"/>
<path d="M211.27 94.757L210.093 94.387C210.087 94.3822 210.082 94.376 210.079 94.3689C210.075 94.3619 210.074 94.3542 210.074 94.3463C210.074 94.3385 210.075 94.3307 210.079 94.3237C210.082 94.3166 210.087 94.3105 210.093 94.3056C210.108 94.2864 210.127 94.2719 210.149 94.264C210.172 94.2561 210.196 94.2551 210.219 94.2612L211.403 94.6238C211.411 94.6284 211.417 94.6349 211.422 94.6427C211.426 94.6505 211.428 94.6593 211.428 94.6682C211.428 94.6772 211.426 94.6859 211.422 94.6937C211.417 94.7015 211.411 94.708 211.403 94.7126C211.387 94.7317 211.366 94.7459 211.343 94.7538C211.319 94.7616 211.294 94.7628 211.27 94.757Z" fill="white"/>
<path d="M215.673 97.1472L202.212 114.974C202.025 115.222 201.771 115.411 201.481 115.521C201.19 115.631 200.874 115.657 200.57 115.595L191.209 112.724C190.683 112.561 190.565 111.984 190.95 111.518L204.41 93.6914C205.15 92.6702 205.646 92.7442 206.171 92.907L208.044 93.4842C208.155 93.4842 208.162 93.6544 208.044 93.7876L207.999 93.8468C207.755 94.1724 207.955 94.2316 208.199 94.3056L212.535 95.6376C212.65 95.7022 212.786 95.719 212.914 95.6844C213.041 95.6498 213.15 95.5666 213.216 95.4526L213.261 95.3934C213.301 95.3294 213.358 95.278 213.426 95.2452C213.494 95.2125 213.57 95.1997 213.645 95.2084L215.525 95.7856C216.08 95.941 216.383 96.2 215.673 97.1472Z" fill="white"/>
<path d="M215.673 97.1472L214.667 98.4792L203.404 95.0234L204.41 93.6914C205.15 92.6702 205.646 92.7442 206.171 92.907L208.044 93.4842C208.155 93.4842 208.162 93.6544 208.044 93.7876L207.999 93.8468C207.755 94.1724 207.955 94.2316 208.199 94.3056L212.535 95.6376C212.65 95.7022 212.786 95.719 212.914 95.6844C213.041 95.6498 213.15 95.5666 213.216 95.4526L213.261 95.3934C213.301 95.3294 213.358 95.278 213.426 95.2452C213.494 95.2125 213.57 95.1997 213.645 95.2084L215.518 95.7856C216.08 95.941 216.383 96.2 215.673 97.1472Z" fill="#045BA2"/>
<path d="M205.032 94.72L204.913 94.3426L205.454 94.1724L205.468 94.2316L205.024 94.3796L205.121 94.6904L205.032 94.72Z" fill="white"/>
<path d="M214.644 97.1916C214.629 97.2015 214.611 97.2067 214.593 97.2067C214.574 97.2067 214.556 97.2015 214.541 97.1916C214.535 97.1875 214.53 97.182 214.526 97.1756C214.523 97.1691 214.521 97.1619 214.521 97.1546C214.521 97.1473 214.523 97.14 214.526 97.1336C214.53 97.1271 214.535 97.1216 214.541 97.1176C214.552 97.101 214.568 97.0879 214.586 97.0801C214.604 97.0722 214.625 97.0698 214.644 97.0732C214.659 97.125 214.674 97.162 214.644 97.1916Z" fill="white"/>
<path d="M214.489 97.3988C214.472 97.4093 214.453 97.4149 214.434 97.4149C214.414 97.4149 214.395 97.4093 214.378 97.3988C214.372 97.3948 214.367 97.3893 214.363 97.3828C214.36 97.3764 214.358 97.3691 214.358 97.3618C214.358 97.3545 214.36 97.3473 214.363 97.3408C214.367 97.3344 214.372 97.3289 214.378 97.3248C214.388 97.3075 214.404 97.2938 214.423 97.2858C214.441 97.2779 214.462 97.276 214.482 97.2804C214.497 97.2794 214.513 97.2847 214.525 97.2951C214.536 97.3055 214.544 97.3202 214.545 97.3359C214.545 97.3516 214.54 97.3671 214.53 97.3789C214.519 97.3907 214.505 97.3978 214.489 97.3988Z" fill="white"/>
<path d="M214.334 97.606C214.317 97.6165 214.298 97.6221 214.278 97.6221C214.258 97.6221 214.239 97.6165 214.223 97.606C214.186 97.606 214.178 97.5616 214.223 97.5246C214.237 97.5099 214.254 97.4989 214.274 97.4924C214.293 97.486 214.314 97.4843 214.334 97.4876C214.349 97.4876 214.364 97.4938 214.375 97.5049C214.387 97.516 214.393 97.5311 214.393 97.5468C214.393 97.5625 214.387 97.5776 214.375 97.5887C214.364 97.5998 214.349 97.606 214.334 97.606Z" fill="white"/>
<path d="M207.422 93.7876H207.37C207.362 93.7581 207.347 93.7313 207.324 93.7104C207.302 93.6894 207.274 93.6752 207.244 93.6692C207.172 93.6474 207.095 93.6474 207.022 93.6692H207.059H207.133H207.259H207.311V93.7136L207.422 93.7876Z" fill="white"/>
<path d="M207.045 93.7654C207.095 93.7508 207.149 93.7508 207.2 93.7654C207.23 93.7659 207.26 93.7763 207.284 93.795C207.308 93.8137 207.325 93.8396 207.333 93.869H207.289C207.281 93.8508 207.268 93.8347 207.253 93.8219C207.237 93.8091 207.219 93.7999 207.2 93.795C207.154 93.765 207.098 93.7543 207.045 93.7654Z" fill="white"/>
<path d="M207.2 93.8542H207.156C207.152 93.8437 207.147 93.8342 207.139 93.8265C207.131 93.8187 207.122 93.813 207.111 93.8098C207.085 93.8029 207.056 93.8029 207.03 93.8098C207.133 93.7654 207.2 93.7876 207.2 93.8542Z" fill="white"/>
<path d="M207.133 93.8764C207.133 93.8764 207.133 93.8764 207.089 93.8764H207.126C207.126 93.8764 207.141 93.869 207.133 93.8764Z" fill="white"/>
<path d="M205.616 93.2918C205.628 93.275 205.643 93.2614 205.661 93.2524C205.68 93.2433 205.7 93.239 205.72 93.24C205.728 93.2446 205.734 93.2511 205.738 93.2589C205.743 93.2667 205.745 93.2755 205.745 93.2844C205.745 93.2933 205.743 93.3021 205.738 93.3099C205.734 93.3177 205.728 93.3242 205.72 93.3288C205.706 93.348 205.686 93.3625 205.664 93.3704C205.642 93.3783 205.617 93.3793 205.594 93.3732C205.589 93.3668 205.585 93.3593 205.584 93.3512C205.582 93.3431 205.582 93.3347 205.584 93.3268C205.587 93.3188 205.591 93.3115 205.596 93.3054C205.602 93.2993 205.609 93.2947 205.616 93.2918Z" fill="white"/>
<path d="M205.853 93.3658C205.867 93.3466 205.887 93.3321 205.909 93.3242C205.932 93.3163 205.956 93.3153 205.979 93.3214C205.987 93.326 205.993 93.3325 205.997 93.3403C206.002 93.3481 206.004 93.3569 206.004 93.3658C206.004 93.3747 206.002 93.3835 205.997 93.3913C205.993 93.3991 205.987 93.4056 205.979 93.4102C205.964 93.428 205.944 93.4415 205.922 93.4493C205.9 93.4571 205.876 93.4589 205.853 93.4546C205.846 93.45 205.839 93.4435 205.835 93.4357C205.83 93.4279 205.828 93.4191 205.828 93.4102C205.828 93.4013 205.83 93.3925 205.835 93.3847C205.839 93.3769 205.846 93.3704 205.853 93.3658Z" fill="white"/>
<path d="M206.09 93.4324C206.103 93.4143 206.122 93.4009 206.143 93.3942C206.164 93.3875 206.187 93.388 206.208 93.3954C206.253 93.3954 206.26 93.4472 206.208 93.4842C206.19 93.496 206.168 93.5023 206.146 93.5023C206.123 93.5023 206.101 93.496 206.083 93.4842C206.068 93.5138 206.06 93.4694 206.09 93.4324Z" fill="white"/>
<path d="M206.319 93.5064C206.335 93.4892 206.355 93.4761 206.377 93.4683C206.399 93.4606 206.422 93.4584 206.445 93.462C206.453 93.4666 206.459 93.4731 206.464 93.4809C206.468 93.4887 206.47 93.4975 206.47 93.5064C206.47 93.5154 206.468 93.5241 206.464 93.5319C206.459 93.5397 206.453 93.5462 206.445 93.5508C206.431 93.5693 206.411 93.5832 206.389 93.5911C206.366 93.5989 206.342 93.6004 206.319 93.5952C206.312 93.5906 206.305 93.5841 206.301 93.5763C206.297 93.5685 206.294 93.5597 206.294 93.5508C206.294 93.5419 206.297 93.5331 206.301 93.5253C206.305 93.5175 206.312 93.511 206.319 93.5064Z" fill="white"/>
<path d="M206.556 93.5804C206.57 93.5612 206.59 93.5467 206.612 93.5388C206.635 93.5309 206.659 93.5299 206.682 93.536C206.726 93.536 206.734 93.5878 206.682 93.6248C206.668 93.644 206.648 93.6585 206.626 93.6664C206.604 93.6743 206.579 93.6753 206.556 93.6692C206.549 93.6646 206.542 93.6581 206.538 93.6503C206.533 93.6425 206.531 93.6337 206.531 93.6248C206.531 93.6159 206.533 93.6071 206.538 93.5993C206.542 93.5915 206.549 93.585 206.556 93.5804Z" fill="white"/>
<path d="M215.259 96.607L214.304 96.311L214.711 95.7782L215.666 96.0668L215.259 96.607Z" fill="white"/>
<path d="M215.185 96.1482L214.792 96.0298L214.667 96.1926L215.059 96.3184L215.185 96.1482Z" fill="white"/>
<path d="M215.288 96.3628L215.236 96.348L215.34 96.2148L215.392 96.2296L215.288 96.3628Z" fill="white"/>
<path d="M192.792 111.866L192.711 111.836L192.444 112.191L192.282 112.14L192.415 111.962L192.134 111.873L192 112.051L191.838 112.006L192.104 111.651L192.015 111.629L192.674 111.392L192.792 111.866Z" fill="#EBEBEB"/>
<path d="M201.591 114.271L200.651 113.982L200.74 113.871L201.68 114.152L201.591 114.271Z" fill="#EBEBEB"/>
<path d="M201.369 114.567L200.436 114.278L200.525 114.16L201.458 114.448L201.369 114.567Z" fill="#EBEBEB"/>
<path d="M201.147 114.863L200.214 114.574L200.303 114.456L201.236 114.744L201.147 114.863Z" fill="#EBEBEB"/>
<path d="M197.018 113.102L196.559 113.272L196.485 112.939L196.559 112.909L196.625 113.19L196.995 113.042L197.018 113.102Z" fill="#EBEBEB"/>
<path d="M196.551 113.893C196.461 113.908 196.368 113.908 196.278 113.893C196.17 113.86 196.072 113.803 195.99 113.726C195.907 113.649 195.844 113.555 195.804 113.449C195.771 113.334 195.767 113.213 195.791 113.095C195.816 112.978 195.868 112.868 195.945 112.776C196.079 112.607 196.259 112.479 196.464 112.41C196.669 112.34 196.889 112.331 197.099 112.384C197.207 112.414 197.306 112.471 197.387 112.548C197.468 112.625 197.53 112.721 197.565 112.828C197.599 112.942 197.605 113.064 197.581 113.181C197.558 113.298 197.507 113.408 197.432 113.501C197.323 113.627 197.188 113.728 197.036 113.796C196.883 113.863 196.718 113.897 196.551 113.893ZM196.81 113.05C196.72 113.058 196.635 113.094 196.566 113.153C196.666 113.15 196.763 113.114 196.84 113.05H196.81Z" fill="#EBEBEB"/>
<path d="M208.68 95.608C208.74 95.5355 208.818 95.4807 208.907 95.4494C208.996 95.4181 209.091 95.4116 209.183 95.4304C209.215 95.438 209.245 95.4525 209.271 95.473C209.296 95.4935 209.317 95.5194 209.331 95.5488C209.331 95.5488 209.331 95.6006 209.294 95.608C209.257 95.6154 209.235 95.608 209.228 95.608C209.218 95.5874 209.203 95.5693 209.185 95.5551C209.167 95.541 209.146 95.5312 209.124 95.5266C209.062 95.5046 208.994 95.5046 208.932 95.5266C208.872 95.5478 208.819 95.5834 208.776 95.6302C208.759 95.6503 208.747 95.6741 208.74 95.6998C208.734 95.7255 208.733 95.7523 208.739 95.7782C208.748 95.8029 208.763 95.8251 208.783 95.8431C208.802 95.861 208.825 95.8743 208.85 95.8818C208.904 95.8966 208.96 95.8966 209.013 95.8818H209.072C209.071 95.895 209.065 95.9073 209.055 95.9167C209.046 95.9261 209.034 95.932 209.02 95.9336C208.943 95.9558 208.861 95.9558 208.784 95.9336C208.752 95.9225 208.724 95.9044 208.701 95.8806C208.678 95.8568 208.661 95.828 208.651 95.7965C208.641 95.765 208.638 95.7315 208.643 95.6988C208.648 95.6662 208.661 95.6351 208.68 95.608Z" fill="white"/>
<path d="M209.139 96.0298L209.464 95.6006C209.477 95.5941 209.491 95.5907 209.505 95.5907C209.519 95.5907 209.533 95.5941 209.546 95.6006C209.55 95.6041 209.554 95.6085 209.557 95.6137C209.559 95.6188 209.561 95.6245 209.561 95.6302C209.561 95.6359 209.559 95.6416 209.557 95.6468C209.554 95.6519 209.55 95.6564 209.546 95.6598L209.413 95.83L209.627 95.8966L209.76 95.719C209.772 95.7125 209.784 95.7091 209.797 95.7091C209.81 95.7091 209.823 95.7125 209.834 95.719C209.834 95.719 209.871 95.719 209.834 95.7708L209.509 96.2074C209.498 96.2139 209.485 96.2173 209.472 96.2173C209.459 96.2173 209.446 96.2139 209.435 96.2074C209.435 96.2074 209.398 96.2074 209.435 96.1482L209.568 95.9706L209.353 95.904L209.22 96.0816C209.208 96.0881 209.194 96.0915 209.18 96.0915C209.165 96.0915 209.151 96.0881 209.139 96.0816C209.139 96.0816 209.124 96.0594 209.139 96.0298Z" fill="white"/>
<path d="M210.034 96.2L209.827 96.1408L209.716 96.2222C209.707 96.2274 209.697 96.2301 209.686 96.2301C209.676 96.2301 209.666 96.2274 209.657 96.2222C209.657 96.2222 209.657 96.1778 209.657 96.1556L210.167 95.7782C210.178 95.773 210.189 95.7703 210.201 95.7703C210.212 95.7703 210.224 95.773 210.234 95.7782C210.234 95.7782 210.234 95.7782 210.234 95.8152L210.093 96.3036C210.088 96.3166 210.078 96.3277 210.067 96.3356C210.055 96.3435 210.041 96.3478 210.027 96.348C210.027 96.348 210.027 96.348 210.027 96.311L210.034 96.2ZM210.034 96.1112L210.086 95.9262L209.901 96.0668L210.034 96.1112Z" fill="white"/>
<path d="M210.774 96.052L210.648 96.0076L210.352 96.4072C210.34 96.4143 210.326 96.4181 210.312 96.4181C210.297 96.4181 210.283 96.4143 210.271 96.4072V96.3554L210.567 95.9632L210.441 95.9188C210.441 95.9188 210.404 95.9188 210.441 95.867C210.452 95.8605 210.465 95.8571 210.478 95.8571C210.491 95.8571 210.504 95.8605 210.515 95.867L210.87 95.978V96.0298C210.859 96.0435 210.843 96.0531 210.826 96.0571C210.809 96.0612 210.79 96.0594 210.774 96.052Z" fill="white"/>
<path d="M199.016 102.845L207.067 105.317L208.769 103.067L200.71 100.596L199.016 102.845Z" fill="#455A64"/>
<path d="M207.814 105.546L207.067 105.317L207.592 104.621L207.814 105.546Z" fill="#455A64"/>
<path d="M207.984 103.356L200.851 101.165L200.88 101.128L208.014 103.311L207.984 103.356Z" fill="white"/>
<path d="M206.327 103.134L200.673 101.402L200.703 101.358L206.356 103.089L206.327 103.134Z" fill="white"/>
<path d="M206.874 103.866L200.325 101.861L200.355 101.817L206.904 103.829L206.874 103.866Z" fill="white"/>
<path d="M207.281 104.281L200.155 102.09L200.185 102.046L207.318 104.236L207.281 104.281Z" fill="white"/>
<path d="M207.111 104.51L199.978 102.32L200.007 102.275L207.141 104.466L207.111 104.51Z" fill="white"/>
<path d="M204.958 104.133L199.8 102.549L199.837 102.512L204.995 104.088L204.958 104.133Z" fill="white"/>
<path d="M195.005 108.151L203.063 110.623L204.758 108.373L196.707 105.901L195.005 108.151Z" fill="#455A64"/>
<path d="M203.811 110.852L203.063 110.623L203.581 109.934L203.811 110.852Z" fill="#455A64"/>
<path d="M203.974 108.662L196.84 106.471L196.87 106.434L204.003 108.617L203.974 108.662Z" fill="white"/>
<path d="M202.316 108.44L196.662 106.708L196.699 106.664L202.353 108.395L202.316 108.44Z" fill="white"/>
<path d="M202.864 109.172L196.322 107.167L196.352 107.122L202.893 109.135L202.864 109.172Z" fill="white"/>
<path d="M203.278 109.587L196.144 107.396L196.174 107.352L203.308 109.542L203.278 109.587Z" fill="white"/>
<path d="M203.1 109.816L195.967 107.626L196.004 107.581L203.137 109.772L203.1 109.816Z" fill="white"/>
<path d="M200.954 109.439L195.797 107.855L195.826 107.818L200.984 109.402L200.954 109.439Z" fill="white"/>
<path d="M211.196 101.069L203.145 98.5976L204.573 96.6958L212.632 99.1674L211.196 101.069Z" fill="#045BA2"/>
<path d="M202.397 98.3682L203.145 98.5976L203.663 97.902L202.397 98.3682Z" fill="#045BA2"/>
<path d="M210.685 99.0564L204.751 97.236L204.78 97.1916L210.722 99.0194L210.685 99.0564Z" fill="white"/>
<path d="M211.707 99.6558L204.573 97.4654L204.61 97.421L211.736 99.6114L211.707 99.6558Z" fill="white"/>
<path d="M211.529 99.8852L204.403 97.6948L204.432 97.6578L211.566 99.8408L211.529 99.8852Z" fill="white"/>
<path d="M210.796 99.9444L204.225 97.9316L204.255 97.8872L210.826 99.9L210.796 99.9444Z" fill="white"/>
<path d="M211.181 100.344L204.055 98.161L204.085 98.1166L211.218 100.307L211.181 100.344Z" fill="white"/>
<path d="M209.146 100.004L203.877 98.3904L203.907 98.346L209.183 99.9666L209.146 100.004Z" fill="white"/>
<path d="M209.901 102.779L201.85 100.307L202.908 98.901L210.967 101.373L209.901 102.779Z" fill="#045BA2"/>
<path d="M201.102 100.078L201.85 100.307L202.368 99.6188L201.102 100.078Z" fill="#045BA2"/>
<path d="M210.204 101.624L203.086 99.4412L203.115 99.3968L210.234 101.58L210.204 101.624Z" fill="white"/>
<path d="M208.769 101.469L202.908 99.6706L202.945 99.6262L208.806 101.424L208.769 101.469Z" fill="white"/>
<path d="M209.183 101.876L202.738 99.9L202.767 99.8556L209.22 101.839L209.183 101.876Z" fill="white"/>
<path d="M207.533 101.654L202.56 100.129L202.597 100.085L207.57 101.617L207.533 101.654Z" fill="white"/>
<path d="M205.905 108.077L197.846 105.605L199.349 103.622L207.4 106.094L205.905 108.077Z" fill="#DBDBDB"/>
<path d="M197.106 105.376L197.846 105.605L198.372 104.91L197.106 105.376Z" fill="#DBDBDB"/>
<path d="M205.735 106.908L199.001 104.843L199.038 104.799L205.772 106.871L205.735 106.908Z" fill="white"/>
<path d="M205.017 106.974L198.831 105.073L198.86 105.028L205.047 106.93L205.017 106.974Z" fill="white"/>
<path d="M205.698 106.331L199.349 104.384L199.386 104.34L205.727 106.286L205.698 106.331Z" fill="white"/>
<path d="M206.571 106.316L199.526 104.155L199.556 104.111L206.601 106.271L206.571 106.316Z" fill="white"/>
<path d="M205.061 107.27L198.653 105.302L198.69 105.265L205.091 107.226L205.061 107.27Z" fill="white"/>
<path d="M202.124 113.087L194.065 110.615L195.316 108.965L203.367 111.437L202.124 113.087Z" fill="#045BA2"/>
<path d="M193.318 110.386L194.065 110.615L194.583 109.92L193.318 110.386Z" fill="#045BA2"/>
<path d="M202.627 111.673L195.501 109.483L195.53 109.446L202.664 111.629L202.627 111.673Z" fill="white"/>
<path d="M202.457 111.903L195.323 109.712L195.353 109.675L202.486 111.858L202.457 111.903Z" fill="white"/>
<path d="M201.717 111.962L195.145 109.949L195.182 109.905L201.746 111.918L201.717 111.962Z" fill="white"/>
<path d="M202.109 112.362L194.975 110.179L195.005 110.134L202.138 112.325L202.109 112.362Z" fill="white"/>
<path d="M200.074 112.021L194.798 110.408L194.835 110.364L200.103 111.984L200.074 112.021Z" fill="white"/>
<path d="M199.156 118.148C196.278 118.259 205.505 112.228 205.572 108.906C205.639 105.583 202.464 106.73 199.985 108.639C191.394 115.299 184.785 115.114 180.493 121.36C176.201 127.606 199.156 118.148 199.156 118.148Z" fill="#EB9481"/>
<path d="M190.35 114.352C188.483 114.863 186.687 115.609 185.007 116.572C183.514 117.552 182.22 118.808 181.196 120.272C181.152 120.339 181.241 120.42 181.293 120.354C183.587 117.394 187.05 115.862 190.372 114.382C190.371 114.376 190.368 114.37 190.365 114.365C190.361 114.359 190.356 114.355 190.35 114.352Z" fill="#263238"/>
<path d="M157.99 127.347C160.247 127.902 175.75 123.262 175.75 123.262L185 144.3C185 144.3 157.96 151.256 151.567 149.206C145.173 147.156 134.813 125.8 131.328 113.346C128.05 101.639 131.875 93.8616 140.57 105.864C140.6 105.864 156.813 127.058 157.99 127.347Z" fill="#045BA2"/>
<path d="M180.086 145.469C178.34 145.869 176.253 146.342 173.996 146.823L165.523 126.103C167.551 125.608 169.675 125.03 171.443 124.535C174.055 130.825 177.223 138.498 180.086 145.469Z" fill="#EBEBEB"/>
<path d="M171.628 147.304L169.667 147.697L161.216 127.043C161.808 126.932 162.452 126.799 163.118 126.651C165.679 132.837 168.794 140.385 171.628 147.304Z" fill="#EBEBEB"/>
<path d="M151.241 148.533C145.861 145.935 138.972 131.838 137.647 129.071C136.796 127.302 136.019 125.497 135.25 123.691C133.718 120.065 132.29 116.402 130.936 112.717C130.939 112.709 130.94 112.7 130.939 112.692C130.938 112.684 130.935 112.676 130.93 112.669C130.926 112.662 130.919 112.656 130.912 112.652C130.904 112.648 130.896 112.646 130.887 112.646C130.879 112.646 130.871 112.648 130.863 112.652C130.856 112.656 130.849 112.662 130.845 112.669C130.84 112.676 130.837 112.684 130.836 112.692C130.835 112.7 130.836 112.709 130.839 112.717C131.604 115.573 132.509 118.39 133.555 121.168C132.888 120.139 132.283 119.071 131.742 117.971C131.742 117.919 131.624 117.971 131.646 118.015C132.198 119.329 132.906 120.571 133.755 121.715C134.821 124.505 136.012 127.243 137.329 129.907C137.707 130.647 145.699 147.956 151.678 149.436C153.757 149.954 160.817 149.28 162.312 148.903C162.371 148.903 162.386 148.807 162.312 148.807C160.277 148.836 153.18 149.48 151.241 148.533Z" fill="#263238"/>
<path d="M179.08 141.836C178.799 141.096 178.518 140.356 178.229 139.66C177.652 138.217 174.174 129.618 172.694 126.94C172.694 126.866 172.546 126.94 172.568 126.999C173.434 129.959 177.104 138.432 177.748 139.83C178.059 140.57 178.37 141.259 178.695 141.969C179.021 142.679 179.435 143.368 179.746 144.085C179.746 144.152 179.894 144.085 179.864 144.041C179.568 143.323 179.376 142.561 179.08 141.836Z" fill="#263238"/>
<path d="M175.765 123.291C174.47 123.38 162.852 126.37 160.284 126.991C159.675 127.212 159.03 127.317 158.382 127.302C157.749 127.129 157.198 126.735 156.828 126.192C155.97 125.252 146.55 113.39 145.869 112.813C145.617 112.591 145.417 112.554 145.662 112.931C146.083 113.575 155.245 125.289 156.073 126.251C156.902 127.213 157.553 128.005 158.834 127.924C159.381 127.887 175.062 123.987 175.854 123.647C175.987 123.58 175.965 123.277 175.765 123.291Z" fill="#263238"/>
<path d="M145.04 103.541C142.702 103.97 136.73 101.225 135.25 97.8428C135.146 97.606 135.694 95.312 136.227 92.4852C136.537 90.7684 136.848 88.8444 136.967 87.0758C136.967 86.7132 147.837 90.7758 147.837 90.7758C147.007 92.9362 146.446 95.1903 146.165 97.4876C146.138 97.7335 146.138 97.9817 146.165 98.2276C146.169 98.267 146.169 98.3066 146.165 98.346C146.335 99.7224 147.556 103.075 145.04 103.541Z" fill="#EB9481"/>
<path d="M146.231 98.198V98.3164C145.851 98.3326 145.47 98.3202 145.092 98.2794C138.565 97.5394 137.559 89.2144 137.411 87.1128C139.364 87.5716 147.889 90.7536 147.889 90.7536C147.059 92.914 146.497 95.1681 146.217 97.4654C146.199 97.7095 146.204 97.9548 146.231 98.198Z" fill="#263238"/>
<path d="M132.519 75.48C132.112 79.5944 136.397 90.3836 139.66 92.3298C144.381 95.1566 150.997 94.1872 153.106 88.7704C155.156 83.5164 149.325 69.5304 145.787 67.895C140.6 65.453 133.119 69.3972 132.519 75.48Z" fill="#EB9481"/>
<path d="M144.788 79.994C144.788 79.994 144.744 80.0532 144.788 80.0754C145.092 80.8154 145.329 81.6738 144.788 82.177C145.514 81.7848 145.195 80.66 144.788 79.994Z" fill="#263238"/>
<path d="M143.841 79.4834C142.635 79.8534 143.464 82.2436 144.581 81.8958C145.699 81.548 144.848 79.18 143.841 79.4834Z" fill="#263238"/>
<path d="M149.103 78.625C149.103 78.625 149.177 78.625 149.184 78.6694C149.421 79.4094 149.813 80.2382 150.568 80.253C149.717 80.4602 149.206 79.3724 149.103 78.625Z" fill="#263238"/>
<path d="M149.48 77.626C150.642 77.1228 151.559 79.476 150.486 79.9422C149.413 80.4084 148.525 78.0478 149.48 77.626Z" fill="#263238"/>
<path d="M142.517 78.7212C142.799 78.5213 143.071 78.3064 143.331 78.0774C143.646 77.8888 143.893 77.6033 144.034 77.2634C144.054 77.1471 144.036 77.0273 143.983 76.9219C143.929 76.8166 143.843 76.7313 143.738 76.6788C143.513 76.6095 143.273 76.6017 143.044 76.6564C142.815 76.711 142.605 76.8261 142.435 76.9896C142.037 77.2644 141.757 77.6793 141.651 78.1514C141.631 78.2602 141.643 78.3725 141.686 78.4743C141.73 78.5761 141.802 78.6628 141.895 78.7236C141.987 78.7844 142.095 78.8166 142.206 78.8162C142.317 78.8158 142.425 78.7827 142.517 78.7212Z" fill="#263238"/>
<path d="M150.005 76.109C149.65 76.1682 149.325 76.1608 148.969 76.1904C148.608 76.2673 148.232 76.2258 147.896 76.072C147.802 76.0032 147.732 75.905 147.698 75.7926C147.665 75.6802 147.67 75.5599 147.711 75.4504C147.829 75.2447 148 75.074 148.205 74.9557C148.41 74.8374 148.644 74.7757 148.881 74.777C149.358 74.7128 149.843 74.8261 150.242 75.0952C150.33 75.1617 150.397 75.2522 150.434 75.3559C150.472 75.4595 150.478 75.5717 150.453 75.679C150.428 75.7862 150.372 75.884 150.293 75.9603C150.213 76.0366 150.114 76.0882 150.005 76.109Z" fill="#263238"/>
<path d="M146.52 84.6042C146.809 84.8309 147.141 84.9958 147.496 85.0888C147.851 85.1817 148.222 85.2006 148.585 85.1444C148.902 85.0974 149.211 85.0052 149.502 84.8706L149.672 84.7892L149.82 84.7078C149.856 84.686 149.885 84.6538 149.902 84.6155C149.919 84.5771 149.924 84.5345 149.917 84.4932C149.921 84.4687 149.921 84.4437 149.917 84.4192V84.36C149.739 83.7828 149.384 82.9392 149.384 82.9392C149.628 82.9392 150.864 83.0798 150.731 82.7838C149.772 80.2436 148.56 77.8065 147.112 75.5096C147.068 75.4356 146.949 75.5096 146.979 75.5762C147.852 77.9294 149.132 80.1124 150.042 82.4656C149.606 82.4218 149.165 82.4392 148.733 82.5174C148.659 82.5692 149.473 84.138 149.473 84.4044C149.023 84.6131 148.535 84.7291 148.039 84.7457C147.544 84.7622 147.05 84.6789 146.587 84.5006C146.468 84.4932 146.431 84.5598 146.52 84.6042Z" fill="#263238"/>
<path d="M149.043 84.7004C148.872 85.2143 148.571 85.6756 148.17 86.0398C147.945 86.2312 147.666 86.3476 147.371 86.3728C146.727 86.4246 146.527 85.8844 146.476 85.3886C146.445 85.1206 146.445 84.85 146.476 84.582C147.297 84.8962 148.197 84.9378 149.043 84.7004Z" fill="#263238"/>
<path d="M148.17 86.0398C147.945 86.2313 147.666 86.3477 147.371 86.3728C146.727 86.4246 146.527 85.8844 146.476 85.3886C146.79 85.2936 147.128 85.306 147.434 85.4239C147.741 85.5418 148 85.7585 148.17 86.0398Z" fill="#FF9BBC"/>
<path d="M136.264 85.4626C138.38 84.5894 135.709 78.7286 135.709 78.7286C136.576 78.2948 137.303 77.6237 137.805 76.7932C138.307 75.9628 138.563 75.007 138.543 74.037C138.543 74.037 147.623 73.297 148.903 69.7598C150.183 66.2226 147.674 61.7012 146.557 61.7604C145.44 61.8196 144.337 63.7584 144.337 63.7584C144.337 63.7584 143.16 62.3228 142.243 62.4264C140.829 62.5818 140.607 64.4614 140.023 65.0756C138.424 66.6814 132.919 68.4574 131.727 70.0336C131.386 70.4219 131.146 70.8886 131.028 71.3921C130.911 71.8956 130.92 72.4203 131.054 72.9196C130.555 73.2472 130.145 73.6928 129.86 74.2168C129.574 74.7409 129.423 75.3273 129.419 75.924C129.241 78.5954 134.132 86.3506 136.264 85.4626Z" fill="#263238"/>
<path d="M136.449 84.952C137.995 82.732 136.493 79.7054 135.028 77.8036C135.028 77.8036 135.028 77.7444 135.08 77.8036C136.56 79.5426 138.321 82.9836 136.56 85.0556C136.546 85.0703 136.527 85.079 136.507 85.0797C136.487 85.0804 136.467 85.073 136.452 85.0593C136.438 85.0456 136.429 85.0265 136.428 85.0064C136.428 84.9863 136.435 84.9667 136.449 84.952Z" fill="#263238"/>
<path d="M137.063 73.7114C139.141 73.9855 141.249 73.9481 143.316 73.6004C144.255 73.4037 145.168 73.1009 146.039 72.6976C146.905 72.298 148.444 71.6098 148.784 70.6256C148.44 71.4048 147.825 72.033 147.053 72.3942C146.053 73.0083 144.965 73.465 143.826 73.7484C141.594 74.3286 139.257 74.3743 137.004 73.8816C136.9 73.8668 136.952 73.704 137.063 73.7114Z" fill="#263238"/>
<path d="M132.615 68.6794C133.624 68.0914 134.669 67.5698 135.746 67.118C137.063 66.4742 138.661 65.8452 139.705 64.7944H139.742C139.008 65.5444 138.146 66.156 137.196 66.6C136.264 67.1106 135.309 67.5842 134.347 68.0356C133.252 68.5536 132.046 69.1456 131.387 70.2556C130.728 71.3656 130.95 72.4756 131.091 73.593C131.091 73.6152 131.083 73.6368 131.069 73.654C131.055 73.6712 131.035 73.683 131.014 73.6873C130.992 73.6917 130.969 73.6884 130.95 73.6779C130.93 73.6675 130.915 73.6505 130.906 73.63C130.59 72.733 130.587 71.7555 130.897 70.8566C131.208 69.9577 131.813 69.1903 132.615 68.6794Z" fill="#263238"/>
<path d="M130.551 73.4524C128.227 75.1396 129.411 78.5732 130.603 80.5934C131.644 82.5738 133.29 84.1706 135.302 85.1518C135.398 85.1888 135.302 85.3368 135.228 85.2998C132.815 84.3526 131.039 82.0438 129.929 79.7794C129.1 78.07 128.168 74.4662 130.551 73.4524Z" fill="#263238"/>
<path d="M137.203 84.1602C137.203 84.1602 133.881 81.1114 132.445 82.3768C131.01 83.6422 134.058 88.4448 136.145 88.7334C136.409 88.789 136.682 88.7906 136.947 88.7382C137.212 88.6858 137.464 88.5805 137.687 88.4284C137.91 88.2764 138.1 88.0808 138.246 87.8535C138.392 87.6261 138.49 87.3717 138.535 87.1054L137.203 84.1602Z" fill="#EB9481"/>
<path d="M133.355 83.731V83.7828C134.835 84.0344 135.812 85.1222 136.589 86.3136C136.482 86.1956 136.351 86.1023 136.204 86.0404C136.057 85.9784 135.898 85.9493 135.739 85.9549C135.58 85.9605 135.424 86.0008 135.282 86.073C135.14 86.1452 135.015 86.2475 134.917 86.3728C134.917 86.3728 134.917 86.4542 134.969 86.4394C135.188 86.3094 135.442 86.2516 135.696 86.2742C135.949 86.2968 136.189 86.3986 136.382 86.5652C136.704 86.8404 136.994 87.1507 137.248 87.4902C137.344 87.6012 137.544 87.4902 137.47 87.357C137.107 85.6032 135.235 83.4942 133.355 83.731Z" fill="#263238"/>
<path d="M147.023 97.9168H146.986C147.726 100.048 149.295 105.021 145.935 105.62C144.535 105.739 143.131 105.446 141.895 104.777C140.623 104.189 139.417 103.467 138.299 102.623C137.005 101.712 135.787 100.697 134.658 99.5892C134.606 99.5374 134.547 99.5892 134.591 99.6632C135.738 100.773 136.811 101.972 138.025 102.971C139.212 103.947 140.526 104.756 141.932 105.376C143.239 106.052 144.721 106.31 146.18 106.116C146.804 105.97 147.357 105.609 147.742 105.096C148.128 104.583 148.321 103.952 148.289 103.311C148.257 101.443 147.825 99.604 147.023 97.9168Z" fill="#263238"/>
<path d="M214.2 327.546H334.554V277.026H214.2V327.546Z" fill="#263238"/>
<path d="M216.48 277.026C216.48 277.026 218.137 269.589 221.445 268.45C224.753 267.31 226.773 270.67 226.773 270.67C226.773 270.67 227.55 263.566 232.242 261.442C236.933 259.318 240.463 263.662 240.463 263.662C240.463 263.662 244.067 254.649 250.497 254.649C256.928 254.649 260.177 267.836 260.177 267.836C260.177 267.836 263.98 263.906 267.873 266.126C271.765 268.346 271.765 277.049 271.765 277.049L216.48 277.026Z" fill="#37474F"/>
<path d="M282.421 277.026H332.26C332.26 277.026 330.617 270.27 327.309 269.789C324.002 269.308 322.462 272.446 322.462 272.446C322.462 272.446 322.61 263.026 316.439 261.42C310.267 259.814 305.087 268.139 305.087 268.139C305.087 268.139 301.21 263.396 295.933 263.699C290.657 264.002 289.318 271.839 289.318 271.839C289.318 271.839 284.537 269.123 282.421 277.026Z" fill="#37474F"/>
<path d="M268.191 277.026H298.827C298.827 277.026 298.753 272.646 295.741 271.484C294.927 271.138 294.023 271.058 293.161 271.256C292.298 271.454 291.52 271.92 290.938 272.586C290.938 272.586 289.71 264.528 284.101 264.528C278.492 264.528 275.798 271.484 275.798 271.484C275.311 270.81 274.64 270.291 273.866 269.988C273.092 269.685 272.247 269.611 271.432 269.774C268.317 270.159 268.191 277.026 268.191 277.026Z" fill="#455A64"/>
<path d="M238.117 327.406H338.75V321.441H238.117V327.406Z" fill="#045BA2"/>
<path d="M238.117 320.006H338.75V314.041H238.117V320.006Z" fill="#045BA2"/>
<path d="M238.117 312.598H338.75V306.634H238.117V312.598Z" fill="#045BA2"/>
<path d="M238.117 305.198H338.75V299.234H238.117V305.198Z" fill="#045BA2"/>
<path d="M238.117 297.791H338.75V291.826H238.117V297.791Z" fill="#045BA2"/>
<path d="M238.117 290.391H338.75V284.426H238.117V290.391Z" fill="#045BA2"/>
<path d="M238.117 282.983H338.75V277.019H238.117V282.983Z" fill="#045BA2"/>
<path d="M210.005 327.406H238.117V321.441H210.005V327.406Z" fill="#045BA2"/>
<path opacity="0.2" d="M210.005 327.406H238.117V321.441H210.005V327.406Z" fill="#020100"/>
<path d="M210.005 320.006H238.117V314.041H210.005V320.006Z" fill="#045BA2"/>
<path opacity="0.2" d="M210.005 320.006H238.117V314.041H210.005V320.006Z" fill="#020100"/>
<path d="M210.005 312.598H238.117V306.634H210.005V312.598Z" fill="#045BA2"/>
<path opacity="0.2" d="M210.005 312.598H238.117V306.634H210.005V312.598Z" fill="#020100"/>
<path d="M210.005 305.198H238.117V299.234H210.005V305.198Z" fill="#045BA2"/>
<path opacity="0.2" d="M210.005 305.198H238.117V299.234H210.005V305.198Z" fill="#020100"/>
<path d="M210.005 297.791H238.117V291.826H210.005V297.791Z" fill="#045BA2"/>
<path opacity="0.2" d="M210.005 297.791H238.117V291.826H210.005V297.791Z" fill="#020100"/>
<path d="M210.005 290.391H238.117V284.426H210.005V290.391Z" fill="#045BA2"/>
<path opacity="0.2" d="M210.005 290.391H238.117V284.426H210.005V290.391Z" fill="#020100"/>
<path d="M210.005 282.983H238.117V277.019H210.005V282.983Z" fill="#045BA2"/>
<path opacity="0.2" d="M210.005 282.983H238.117V277.019H210.005V282.983Z" fill="#020100"/>
</svg>
